<mxfile host="65bd71144e">
    <diagram id="hGbU_lRXUNs4Ye7_y9a7" name="Page-1">
        <mxGraphModel dx="2797" dy="735" grid="0" gridSize="10" guides="1" tooltips="1" connect="1" arrows="1" fold="1" page="0" pageScale="1" pageWidth="850" pageHeight="1100" math="0" shadow="0">
            <root>
                <mxCell id="0"/>
                <mxCell id="1" parent="0"/>
                <mxCell id="37" value="" style="rounded=1;whiteSpace=wrap;html=1;" vertex="1" parent="1">
                    <mxGeometry x="-504" y="608" width="159" height="342" as="geometry"/>
                </mxCell>
                <mxCell id="2" value="Dagster AP" style="shape=image;verticalLabelPosition=bottom;labelBackgroundColor=default;verticalAlign=top;aspect=fixed;imageAspect=0;image=data:image/jpeg,/9j/4AAQSkZJRgABAQAAAQABAAD/2wCEAAkGBxIQEhUTEBIVEhAVFxUYEhgVFRUVGBcYFxUdFxUWGBYYHSggGBolHRgXIjEhJSkrLi4uFx8zODMtNygtLisBCgoKDg0OGxAQGy0hHyUtLS4tLS0vLSsvNTctLTctLysvLSsxLS0tNS8tLS0vLS0tLS0rLS4tLS0tLS01LS0rLf/AABEIAOAA4AMBIgACEQEDEQH/xAAcAAEAAQUBAQAAAAAAAAAAAAAABwEDBAUGAgj/xABBEAABAwICBgYIBAQGAwEAAAABAAIDBBEhMQUGBxJBUSJhcYGRoRMUMkJScrHBIzNikkOC8PEkU2OiwtE0suEV/8QAGgEBAAIDAQAAAAAAAAAAAAAAAAECAwQFBv/EADARAAIBAwMBBAoCAwAAAAAAAAABAgMEEQUhMRITQVFhIjJxgZGhscHR8CPhFDNC/9oADAMBAAIRAxEAPwCcUREAREQBERAEREAREQBERAEREAREQBERAEREAREQBERAEREAREQBERAEREAREQBERAEVF4nmaxpc9wa0ZlxAA7SUBcRcfpXaJRw4Rl07v0Cw/c7BcvW7Uah35UMcfW4ukP0A8luUrC4qLKjt57ENolhUUH1GvOkH/wAfd+VrR9lhv1orTnVS/ut9FtrRqz5kiOony6qoEj1srm5VUneQfqFnU+v9ezOUP+ZjT9FEtGrLhpjqRNqKLqLapIMJqZrhzjeWn9rgfquq0TrzRVFh6T0Tz7svR88j4rUq2Nen60fhuTlHTovLDcXvdVWoSVREQBERAEREAREQBERAEREARFQlAVXiSQNBLiA0Ykk2AHMlYOmtMRUkZkmdZuQHvOPJo4lQ5rTrbNXmx/DgB6MYN78i4+8fILctLKpcPbZeJDeDstY9o7IzuUbRK7G73X3B2DN30UdaV0tPVO3qiR0hGIBPRHY3IdqwUXpbeyo0PVW/iyjeQiItsgIiIAiIgCIiA2+hNZKqjsIZTuD3HdJn7T7PcVJmrWvsFVZktoJuRN2O+Vxt4HzUOIQtG5sKVflYfiSng+lLqqh3VDXuSltFUXlp8gc3s7Pib1f2UuU1SyVofG4OY4XaQbgheaubSpbyxLjuZdMvIqBVWsSEREAREQBERAEREAK1mn9Mx0cJllOAwaBm53BoWbV1DYmOkkO6xgLnE8AMSoK1r1gfXzb5u2NtxE3kOZ/Uc+9btjZu4qb+qufwQ2Y+ntNS1svpJT1MaPZaOQH34rWoi9ZCEYR6Y8GMIiK4CIiAIi7HZfooT1Rkdi2ABwv8TiQz6E9yw16yo03N9xKNzqzs4aWiStJuRhE02t87hiT1DLrXUjUfR9rert7buv43XQNCwdKaZp6UXqJo4gct9wBPYMyvJ1LytUllyZfZHG6c2aROBdSPMb/heS5p6r5t8x1KNK+ikp5HRTMLJG5g+RB4jrU8aK1gpKo2p6iOU8muF/252WBrtq22uh6IAnYCYj9WE8j/ANLcstTnCXTVeY/NEYT4IORVIIwIsRgQcMRmLcFRemRQLpdTda30D7Ou6mcem34f1t6+Y4rmlVY6tKNWLhPhhbH0dSVDZGNfG4OY4XaRkQryiDZzrR6s/wBXld+BIegSfYf2n3T/AFxUvBeQuraVvPpfuMieSqIi1iQiIgCIiAKiqsLTFe2mhkmf7LGk9ptgO82UpNvCBHm1TT5LhSRnoizpjzObWdnE9yjpXqqpdK90khu95LnHrJurK9laW6oUlBe8xt5CIi2SAiIgCIiAKTdjlt2p+Leiv2Wfb7qM12myvSYhqnRuNhM0AfMwkjyLlo6lBytpJeRaPJImt+sTNHU5nkaXgOa0NaQC4uPC+GVz3KMdfqqi0vA2qpJAKuBp34n9B748CRY+0W5gi/vBdNtupnPoGOaDaOdjn25FrmfVwUFBeTismOpJ5weopC1wc1xa5pu1zSQ5p4EEYg9a+g9l+tLtI0x9L/5EJDZD8QIux/fYjtaV883Uv7BaV4FXKQfRuMLGnm5m+XeAe3xSSKUm84NXtEoBDXSWFmyASDtd7XmD4rmV3m163rMPP0X/ADK4RevsZuVvBvwMz5KIiLbIBF1NGzzWD1yn3Hn8aGzXcy0+w7yN+sKF1u9T9L+qVTJCbRk7kvLddxPYce5aOoWyrUXjlbolPBPSKgcqryJkCIiAIiIAo/2u6RLIYoAcZXFzvlZbDvLh4KQFDW1Kr360t4Rsa0dpu4/Vb+m0+u4We7ch8HHoqqi9aYwqqzUzbgvx4LBFU/msU60YPDJwbNF4hk3gCvayJ5WSAiIpAXpjy0hzSQ4EFpGBBGRB5ryiNZ2B0Om9cqurYY5HNbERZ7WtADud73K51rQMlVFip0adNYgkhzyCL54reav61VNEAyJwMQJPo3NG7ibnLELRopqUYVFicchbG71s0+a+VspZubrA2197EEkkHlcrSKqopp0404qEeESERFcgIURATnqJpP1mjiccXsHo39rMPpZdCoy2PVnSqIScLMkb24td5bngpOXjb2kqdeUV4/UyIIiLVJCIiAoVA2usu/X1B/XYfygD7KeSoC1tZu1tSD/mu88fuuxo3+2Xs+5WRqFRzwMyAkjrAlacuvicSV3qtXsyps6qLebhmMlrxC69rG6ytHvOI4BZqp2cavpAtwR7rQPFe0RbCWFggIiKQEREAJtnksd1a0cz2LHrZrmwyHmsZalS4aeIk4NlFVNdhketX1pVtKSTeaL55eCvRrOTwwXkRFsEBERAEREB1ezKo3K9g4Pa9p8Lj6KaVA+pD92vpz+u3i0hTwF5nWY4rp+KLxKoiLklgiIgChHaTSmPSEh4SBjx3jdPm1Tco32x6MJjhqm/wiWS/JIQQ7ucP9639NqqncLPD2IfBGRWC+hN8CLdazgUXqpU4y5KFmCIRg3PaV4Fa3rtzTSA6I5XxWvWvUqOm+mPANyCis0V9wX7leWzF5WSAiIrAK3PJutJ8FcWBXy3O6MgsdWfTHJJioATg0XccGgZknId5si67ZdoX1qua4/lwWlf23/DHe4X/lXJqT6IuTJJJoNmlC2ARyxl8paN+TeIdvWxLeQvwUSVFAaeSSEne9HI9t+YabA9RIX0TX1TYY3yP9ljS49gC+d6icyPc93tPc57u1xLj5lYtHc5zlKXBMi242x5LUOnJN7m/CxXX6paLFVVxROF4770g4FrcSD1HLvUy6xaMhlpJY5GN9GI3ECw6O602LeRC2L+97KcaaRCWT5/hddoJzsri8RCwA6gvbaaSUiOFjnyvNmtaLkrp9XRDLKnkOBVV50tq5V0RY6oidGHEbrsCL8rg4HqPcvSpQrKqsolm51Nbeupx/qDyBKnsKENnMO/Xxfp3neDSPupvC4OsyzWS8EWiVREXILBERAFjaQo2TxvikG9HI0tcOoj6rJRAfN+l9GyUE7qabHdP4b8t9p9l39cbhWlN2vGqLNIw2uGTsuYn2vYnNp5tKgirhmpJHQzsLXtzaeXAg8RnivTWF+pxUZclGjJcL55KwKRnLzXqKpa7jY9aurp+hPcqEVVRXAVV5c4DM2WLNWj3cetUlNR5BdqZ90dZyWsRxubnEpYnAXJOAAFyScgBxK0KtRzfkSiscbnENYC57iA0DMk4ADrJsvobUHVv/8APpgx1jM/pzEfFbBvWAMPHmtBs11DNLapqh/iCPw2f5QOZPN58u9dXrRrBHQwmR+LzhGy+Lnf9DiVxbms60lSp7/cukcptU09usFJGek/pTdTRi1vaTj3dajGyu1lU+Z7pJDvSPJLj1n+rdwV3RWj31MzIYx0nm3YOLj1AL0NtQja0ce9lG8kibJNElrJKlw9uzI/lBu895sP5V0G0LSQp6KT4pPw2/zZ+V1u9GUTaeJkTPZY0NHXbj35qJtpum/WKgRMN4oLjqLz7Z7rW8ea4VFO8u+p8c+5cFuEccpB2RaO3pZpyOixoY35nYu8gP3KPibYqeNTNFeqUkcZFnkbz/mdiR3YDuXU1at0UOnvl+siJgbTS31CQOF7uYG/NvixULqRdr2k7mKmHC8j+32WD/2Pgo5TSabjb5fe8iXJIOx+kvNPKRgxjWDteST5NHipUXK7N9G+gomEiz5SZHd+DfIBdUuFfVe0uJNez4FlwERFqEhERAEREBQrSaz6r0+kGbs7ekAdx7cHsvyPLqOC3ZXB6V2mQxSFkUTpg02Lt4MH8uBvkeSz0KNWpL+JZYI61m2fVlGSWtNRDjZ8TSSB+qMXI7rhcmyTkfAr6I0FrpS1dgH+ik+CSzSflN7O7isrTOqdHV3M9OwvPvAbrv3Nxut6N5UpPpqxK4yfOIqH/EVQzO+IqY63ZDSuxhnmi6juyDzAPmtU/Yy/3a9tuumP2mWwtQpvlv5jBFxKXUt0extg/OrHvH+nE2Pzc566bROzvR9Pj6H0rhxlO/5HAeCxzv6S43GCFtX9WKquP+HiJZxkddsY/myPddTJqbqFBo+0jyJqn4yLBvMMacu3NdVNKyJl3FsbGjMkNaBw7Fw2se0eOMFlGBK/Lfdgwdgzd9Frdde6fTBbfvLJ2R0+smsMNDHvym7zfcYD0nHq5DmVCmnNMS1kplmOOTQMmj4QsaurJJ3mSVxfI7MnPs6grBK7llYRt1l7y8fAo2LqX9nWq5pY/TSj8eQCwIxYzgO05larZ/qWQW1NULZGGMjEcnO+w713GntMRUcRllOAwaBm53Bo6/8A6ufqV46j7Glv4+fkWSNTr3rGKKCzD+PICIxyHF56h9VCYWdprSslXM6aX2nZDMNHBo6v+1iRRue4NaC5ziA0DEknAALpWNqrenvy+Sre50ez/QnrdUN4Xiis+TkTfoN7yP8AaVM1bUthjdJIbMYC5x6gtVqfoIUNO2PAyHpSkcXEZdgyXHbU9Yt4ikiOAs6cjnm1n3PcuNVcr656V6v28Sy2Rw2l9JOqpnzPzebgXvYe63uFld1e0Wauojhxs49MjgwYuPgtapW2V6D9FG6peLPlwZfgwce8/QLs3lZW9v6O3ciq3O8jjDQABYAAAcgMAvaIvImQIiIAiIgCIiAxtJRF8MjWmznMe1p6y0gea+dHRlpLXAtc3BwOYIzBX0mVoNYdUqatxkbuS8JGYO7/AIu9dLTr2NvJqS2ZVrJBVluNF6zVdNhFO4N+F3Tb4Oy7lutLbOauEkxFs7OFrMd+0n7lcnVUz4juysdG7k9pafPNegjVt7hcqXkV3R2lJtPqm/mRRSdm8w+OI8lsWbVR71IR2TX/AOCjRFilptrL/n4MdTJJl2qn3KT9032DPutTWbSax/sCOIfpaXHxcVxiKYadbR3UfiMsy9I6SmqDvTyukPDeOA7G5BYqzdG6IqKk/gQvkHMNO7+44ea7PQuzKR1nVcojb8EfSceYLsh3XV6l1b0I4bS8l/Q5OFoqSSZ4jiYXvOQAue3qHWpT1Q1DZT2lqbSTYFrfcj5H9TuvJdVorREFI3cgjDBxtme1xxK5zWfX6CmuyC082WB6De1wz7B4hcatfV7t9nRTS/eS2McnQae03DRxekmPytHtPPJoUKax6flrpPSS4AXEbBkwHgOZyueNliaT0lLUyGSd5e888gOTRwCxF0rHT4266pby+hDeQpQ2a6qmMCrnb03D8FpHsg5vPWeHV2rB1C1JMhbU1TbR4GKMj2uTnDgBwHG/j2+tGscVBHvP6Ujr+jYM3H7DmVq6heOpL/Ho7t84+n5CWN2YuuuszaGLo2M77+iby5vI5DzKhJ7y4lziXOJJJOJJOJJPNZOldIyVMrpZnXe7PkBwaOoKzTwOke1kbS57iA0DMk5LdsrSNtT3572G8m01U0Ga6obHiIxZ0pHBt8QDzOX9lPEMYY0NaLNaAGgcABYBaTU/V1tDAGYGR3SlcOJ5DqGQW+XA1C67ept6q4/JZLBVERaJIREQBERAEREAVLKqICll4mga8br2hzeTgCPAq4iA0lRqjQye1TR36hu/Ra9+z3R5/hOHZI8fddWqFZlc1Y8SfxYOWi2f6Pb/AAifme8/dbOl1bo48WU0QI4locf911zG0vWaWmLIIHbjntLnuGYbewDTwJxxUYz180n5k0j/AJpHu8iV0rezubmHXKo0n7WVbwT3W6ZpoPzZo2EcC4X/AG5rlNLbTKeO4p2Onf19BviQT4BRKGgZAL0tylo9KLzNt/IhyN9p7W+qrAWvfuRnNkd2tPbxd3rQBAMgMzkBxPJdboLUCqqLGQerx83i7j2Mv9bLflKhbQ7or9+JG7OWghdI4MY0ve42a1ouSexSfqdqA2IiWss6TNsebW9bviPVkOtdToDVynom2hZ07dJ7sXu7+A6gtwuFeapKp6FPZfNllEx66f0Ub5LXDGOdb5W3+y+fdI6QkqZHSzO3nuz5DkByAX0PMwOBaRcEEEcwRYhRLpXZtUsefVi2SIk7u87dc0cA6+faE0mvRpuXaPDfDElk4gf19v7KXdn2qHqo9POP8Q4dFp/htPD5jxPcvep+orKQiWciWf3cOizsvm7rXaAK2oaj2v8AHT4734hIAKqIuOWCIiAIiIAiIgCIiAIiIAiIgCoVVEBw+0XVWSs3JqexlYC1zThvNvcWOVxjgc7qPo9UK92ApZO/dHmTip4Sy6FvqVWjDoSTRDRDVHs6rnnpBkQ5uffyaCug0dstYDeoqC/9MbdwfuJJ+ikayolTVLmffj2DpRq9E6vU1L+RE1p+LN37jitoqotCUpSeZPJIREUAIiIAiIgCIiAIiIAiIgCIiAIiIAiIgCIiAIiIAiIgCIiAIiIAiIgCIiAIiIAiIgCIiAIiID//2Q==;" vertex="1" parent="1">
                    <mxGeometry x="-162" y="571" width="61" height="61" as="geometry"/>
                </mxCell>
                <mxCell id="7" value="Authenticated AP user" style="edgeStyle=orthogonalEdgeStyle;html=1;" edge="1" parent="1" source="3" target="2">
                    <mxGeometry x="0.5122" relative="1" as="geometry">
                        <mxPoint y="1" as="offset"/>
                    </mxGeometry>
                </mxCell>
                <mxCell id="9" value="Authenticated Moto user" style="edgeStyle=orthogonalEdgeStyle;html=1;" edge="1" parent="1" source="3" target="8">
                    <mxGeometry x="0.4954" relative="1" as="geometry">
                        <mxPoint y="-1" as="offset"/>
                    </mxGeometry>
                </mxCell>
                <mxCell id="11" value="Login and check ap/moto access group" style="edgeStyle=orthogonalEdgeStyle;html=1;dashed=1;" edge="1" parent="1" source="3" target="10">
                    <mxGeometry x="0.4541" y="-23" relative="1" as="geometry">
                        <Array as="points">
                            <mxPoint x="149" y="451"/>
                        </Array>
                        <mxPoint as="offset"/>
                    </mxGeometry>
                </mxCell>
                <mxCell id="3" value="OAuth2Proxy" style="shape=image;verticalLabelPosition=bottom;labelBackgroundColor=default;verticalAlign=top;aspect=fixed;imageAspect=0;image=data:image/png,iVBORw0KGgoAAAANSUhEUgAAAOAAAADgCAMAAAAt85rTAAAA/1BMVEX///8G7ZRsqP8A7ZEFm2EZV7oA7I5m8rTt/vh+sv/r9P9mpf8A7I2D9L5tqf9opv9Q8Kepyv/E++Ul7pyz99b1+f/O4P+awf/J3f8G34v5//0FqWosacn2//x887vM++kz8KON9MGX9syJuP+l+Njn/fOx99Xc/PBc8rLA+uNv87vX/O3O++dP8KuU9swAlli00f+7+NkFsm/N4P/c6v++1/94r/9YlO0JUbgAR7UiX8CD9sjh8uuD5b+018UAmVQAy3ya0LdOtYvM59sF04SIzrI2pHNsvZk5q3twmNuUqtlHg9/F0uuqvOEzbsRGdsY7d9VYhs1OiuSHntSar9u0SiW5AAAOp0lEQVR4nO1d/X+bNh4OUSrTVk4IkLVjwybM+AUMi9c2zepcu+1u2+12e7u7//9vORxLvAhJgA0C8snz6S91bNAj6fsq6auTkyc84QlPeELPMdVX7vX1OMX1tbvSp3bX7ToedrDyNU0zDEMBeSjxZ/Ff/Fmgdt3Ig2CpXuAaKMYDGzZ2f4K7r8wCT7W6bnIN2GvTXRoIcngVAZERuuZ6GGNp65HvQMgbNR4AhMboetV7sTRDx+BOyVKSIBbL/nK01MBBUChwWSXD+xZCod5LgdTdkDkvd4oEQsVZjiYpRqGz+5RNFCAnWvWMomWODQa9WEeC5TiabzabdawnU9jeOv5sHm2XCmL+TvHnfZqqkaNQrXzQ/8p27u14cX9nxdbEM30FFac2UBxXIgMBLG+mUIMQW3EtdIMaD1m4S82gOinuItfrfqYGkYGodhm+O63fMGvqjg2U5wiVrd5Cm2vAi5y8OYdwO18fLD3r+VbJc4RGtGiywTUR5acVQMr8yElleRsnTxEYXcmipTvZyRlrhYnXyIMX27zOgorehUZdT7KKD8CR2wy9HVR3lJ8aozoaqxHYblb4gDLeNOsp2/pYyb7AmcgdxCDM9DBAfgvq3FqMM9YHAG3V+Cu4sLcZPQCMUXNzk4JvZCluW3sPhUBLlQtQJm32rO5nZgp01i2+KsXcybxTM9v1NWw915szCZ5NRr8BELUfhKuzrLaZtM1wasC0P0ctvwzD2qZ9CkG709TNDJ+2afVVWZhhxii6LRqMScoPSfURvW2God8aw21mes7begkb1jr1m0DYzju8MOW3lO/iq6lvAYw2LOIq4Rf7913EofYssU9Aa17VrNL+k+k05RAkKhw4s4afPU16D2rSPfsEC59YfaCYjT7ZTMYP+o0+uCbscapMm1RzJnF6Y9ezwcceglmqCZobQ52MX3fpgxSztDFNMdyk49eVeslilTanGV8q0Z9A6TiHhxE4SYOaGMNAI49z+jB+O0yTMWwgQrRSfv0Yvx1WyRiGR8drPuyT/BGkcmgc9yAr4WdMm2laQ0gcD+gf5TZGidHpz/zcI0jGcHwEQzNxG5p2/Y7HpgmXhjwCbJtrWGNwEdEOh8Zu1pLM8679MzbcxBwe+IAt4bdstF2NIdGAMDro97qBO2gpK6NcF2pIYpxDfDYVq6kmvIW2EEDSxgNiVCKAPVSgKdbJLKvt0Zio1wqGgBhqVHcYFqRrjM62q9iLClsZ1CSVUnMIr/HvkEwPxvKCINBnkR9qOzjGqLx3PWIN660jEBcGNJvaYeL+b76joBQPO7z229mAUe7hm2QI69gKon/BSMIWzo+fvuNuTwTlKs4e4baGNayZiy2oIcFCWN9/ffYdj2Dc7tIsEInIQY10NHFhDvMQ6sH+4ezs7JvP+RSvy9pNNKlSeQhJlxzq49XC/dcxwbMv+AxR6R4AbLJBVZcy8dGkLAD+/YHg2dk/uAzhssRPWWCJQtUkikgtPCaSrI4fMUGBIEKnpKt9omcqtXiFHytDw8Q4S/ANl2FZBpQMYaXYVyUzWoaGiZXop5ThmUAQxSG3SaSwglkLiIMuZ43z+68zBL/gCyISbujwsOGGFYaQSKCkVYgfsgRFggiEytTFXyrPk3okT9ggCRF+yhMUCKIimlMWdrphaWBIvigrzXtPM+QLIkCCRk0RlqyS9+EIEmjSzhHdU5NUJIiirVzYeKMS1RHhAZQYxt//TA0hXxCBseUyNPeyBcQr0Iu9l3ZQjuNgWD9+ohgKBJHrjqnYwXSEjt0cd8N18zRE+PgTxZDvmkJuVEQCQ5H6J0Ze+kpEURC5MSJ3mRKviwrjwgWJc9uhIUCBoUgQ2WkGa4JbL3DrsJEXqeO2YP1MM+QKIuBkJ3CeBUZ8VUu22bTFQoiPtDLlCyJgK1OyGM2doyuEu6A9FiJ8/Cc9iFyLCJlnUCJYMgHxDD14OepY3BcY8gUxZKw42yXejI3VUHsbTstwX0MQHQZDvJyCOI9f7b2dKiFHa/i+siCyMoprLGMcPwxns+lI3lIlwv7xCwr8hFsxo+hhT5rt7qgj9gzVlyOJWH5eAI9gMQi29mu2QGMqWbIURffLHAGZ4NJhjSGt7+f7Ocr2xLAfatB+tlm9ZINsgDHVVrKNjWXokuGl/zAkgvY+gQhYB2RUYiSGTBArSma4t+CFuoMiSEwdw+HGfhoqWPlBEcTzkGUJSWax8IdBEcQONxgXvTHsxxVt5LAIYi3jFJJmNtfLGRZBImmFaCPg/WFgBPGmhOJKGjmPMHSCRNQKizX7dBNreWaYBAu6BGsfRi5gYAR9tjWwNa79GBhBHectqI+nfA9gYASJtqRkTeDiDIygh9MWVMSEFxBZgdTACOI1CnoBF3vhrM29QyO49znp3OcYx1HFHwyNIAkJqbDv8RC0IrwGk/90Ang/aI9g7XQNzAMhxBqQvU9GZSbw7ibmumDdpBNpvyGAs4NWAWGMZYxdwm0bRZE7wzBNcxUErAT+HBPMBUweXhhkLR7qI3+HMQ/XGUS7NsSYxf9WehHTHYIYi8XCs217VwaQ8cqjwCRI9lyyktqW/YCm29EaTCbBfaRvyCsw0h42e52RX6tfY4IStmi3DkIwl1h7VATxEsujJYi3g+aPrD4RHBBkErwS4UUWbzE+E+D1mzevCd7FuLm5fNMEwauHNz888uGpMS6r4FUJvsrgeYzb8xinp6cXMV5WxCWjvUTJVCb45nYH/PYa77+ogdPDwCbIMhMiQ//65YGvbx9CgjlDL3LVhkaQ6aqJnO2hEWQ626Jw6VEQFAW8QyWY/1SQshgYQXbKIiHICD8HRpAknag9r4K04cAIctKGgsTv0AiyE7+C1P3ACHJS94LFl4ER5Cy+CJbPBkZQxwTpz/kLoAMjyFkAJUvYjNoDAyPIW8Lmb0IYJEFY2IQw5W4jGRZB7jYSi7sRaFgEV5A3UNytXMMiyN3KRTbjFY+2DosgfzMedzulkOA5DWnkdigSFGyn9Hinr68uBTmhQqrp9rlE3N7QjcVlKlgn0Lhbmk+ubrhj+P5LGr+8kIkruq04KmJVkrbHnE3pMd7xGX64e5bD3b8KL5UI0ab05MwB6/ju63POND2/KDD85UXbNPgQHSvgHgx5wNVXnEE8P//1GcXw2b/bZSEAGSRmMVTe0Z49uAxPz//zgaL4bVcMRWJ2wj2chXF1yWX4nmb44bcWWQhADmdxziDrJcfrbnjm4vz9l5QgPvtvayREKDleV3pA8h1X1ZwWBPH3LpRpyQHJpHIQ94jrZ895quaUFsS7P962Q0KAsiOuJNoXHFJ+y1c1tCDe/S5d1ZQeUibHzAW1ZATK9P2XFEPpqobUU+WXQqhSKOCSQzC2iH/S5uIvqYI4UzjedApSz0lY6uHmlkvxV3qayvRqqpR6qFas4zWPIEMQ/5DHsEqxDuLqMJfRUrx4Wdki3n1oloUA8wrlVk4WYaWCOVfPuWN4mxfEu78aJSEAqRUrLphD3LWyYgGCIPgiJ4h30jRptZJHSdGqsvpk/CD4/DRrL76VZu4rFq0iJUtYqzB58MP885fpGH6QpWRwSqn8XjRSOK68psxnt1xVc0EE8e4XSZYwKRxXXnFyWbnwmMBvI67pt7JEsHrpv5M1FtYKxRtfvOIyJBZRkj9ap3hjUn6zQukxfhCMLaKskGJOym9WKfOLtyNWK+J/wyMYq5o/n91JinsXWG9Uu4dJrVUC9x3Xq7m4+PXuf0e2vCLqlcBNrwCodMjgdSYIzuyzvLh9dXnzm5wZusBhHqp6s1C9MtQvviKkzl/d3Ny8e/N2n3S+khYr1S1DnVxmU7X+WDGDLhUROS5VvRZ8RErBd3dZZHUkd73VKAWfFPOvfxGHdNhkgtYp5p/c2iTjOoYjsSG+Zb2qy51cqHEIiAatW1EzvRKl35PUS65EqVuvcPPIL7UZ2LVEcFn/AOcgLpZSSBsPsWcDuBqMVEw98DpXcgc8bOl69GNhH3m524lFcv09VTQuMdaHl+wlYdYjvWAxew1l91dE00jadsyhRyu55LQnlyinSC855Ze/r4D0mlqlr9fUjo4spfDILxqOdXGYPKo/DJu8KposOPWJYdDkZd+5+9/7oWmS+9Wb8pM3Td9wfxxWzTdnqiSP7KgMfgZu0hijuTjHNJJJ0bVPMyM3KvCunTgMJum20hXUdmFdJ75Vw3HqNBlDyNouLAmLZTJ+jauDRLRj3dyVqgnSNjQofwTrECa953ZR4cmepfy0NgzWIkwLrHUQ5KthqgfaSvVNEl0K0FzK9ZIJrAClL2/v+vhxqsPQVuYgetvMLQZt3miSWNmdnyvvZpFVmNJrWQFMjUQQgXJsKFYRlp92KwTrtl+aeRsAwnsrm4GanTUK80hLw5g5qTxAbdPuG21dQ8nb2rB+LARaai/iPm0zStQz80WB0nLs9jbV2XG3ll7lfPB7RkbmPVL1dhAq2VcvveYnqrUYZbuxHeeFD3vmZArHAmW8aVbd2Po204Wx/8s4s9oy1pPsFUJAWbrNzSDVHSnZwrtw1EUEY+lGthFAcUbN3ArnTZzs6MVU9a7Kt0b5lgCkzLzj2mKrcwNlnynNNrDhRUa+hjNUJvP1wRzX84mBqOdFXV0WSNoUUU0C0PHdaX2O9tSdGBBQ9Lbd52Itb6ZQ7QLA0LRtHb0QRKFmKNRTIHJbMD8HIdKMfON2RcIRQqNV4KmiwbRVdbHy429C+lY3YDh9WrKzNtf0MOJBMELfnZub9UNhbfxt24v/t96Yc9cPHcT8neJv+lb4euU6qNjU3VhCCHdzNlziYuQTfxnGM/Lhc+YvkOOuejI3c1CDJUK8CwQr3jMYdwcK1z3eXbVaOrSyqA6gGM6y99v/bN2dKJAhWCXkIDRGUWcuS03oputDlvbgkUNg5JqHOwgdwLK92Lbt9D8UCdxO5BAKo8Cz+6hVyhF7Adulpu3ksqBkDEfTllu3Y0+sEdjqdPZwHUX2horZ9Ei//AlPeMITniAB/wexRKEcsh4hRwAAAABJRU5ErkJggg==;" vertex="1" parent="1">
                    <mxGeometry x="0.6700000000000017" y="438" width="46.66" height="46.66" as="geometry"/>
                </mxCell>
                <mxCell id="6" style="edgeStyle=none;html=1;" edge="1" parent="1" source="5" target="3">
                    <mxGeometry relative="1" as="geometry"/>
                </mxCell>
                <mxCell id="5" value="Middleware Gateway" style="aspect=fixed;sketch=0;html=1;dashed=0;whitespace=wrap;verticalLabelPosition=bottom;verticalAlign=top;fillColor=#2875E2;strokeColor=#ffffff;points=[[0.005,0.63,0],[0.1,0.2,0],[0.9,0.2,0],[0.5,0,0],[0.995,0.63,0],[0.72,0.99,0],[0.5,1,0],[0.28,0.99,0]];shape=mxgraph.kubernetes.icon2;prIcon=crd" vertex="1" parent="1">
                    <mxGeometry x="-1.0000000000000142" y="336" width="50" height="48" as="geometry"/>
                </mxCell>
                <mxCell id="8" value="Dagster Moto" style="shape=image;verticalLabelPosition=bottom;labelBackgroundColor=default;verticalAlign=top;aspect=fixed;imageAspect=0;image=data:image/jpeg,/9j/4AAQSkZJRgABAQAAAQABAAD/2wCEAAkGBxIQEhUTEBIVEhAVFxUYEhgVFRUVGBcYFxUdFxUWGBYYHSggGBolHRgXIjEhJSkrLi4uFx8zODMtNygtLisBCgoKDg0OGxAQGy0hHyUtLS4tLS0vLSsvNTctLTctLysvLSsxLS0tNS8tLS0vLS0tLS0rLS4tLS0tLS01LS0rLf/AABEIAOAA4AMBIgACEQEDEQH/xAAcAAEAAQUBAQAAAAAAAAAAAAAABwEDBAUGAgj/xABBEAABAwICBgYIBAQGAwEAAAABAAIDBBEhMQUGBxJBUSJhcYGRoRMUMkJScrHBIzNikkOC8PEkU2OiwtE0suEV/8QAGgEBAAIDAQAAAAAAAAAAAAAAAAECAwQFBv/EADARAAIBAwMBBAoCAwAAAAAAAAABAgMEEQUhMRITQVFhIjJxgZGhscHR8CPhFDNC/9oADAMBAAIRAxEAPwCcUREAREQBERAEREAREQBERAEREAREQBERAEREAREQBERAEREAREQBERAEREAREQBERAEVF4nmaxpc9wa0ZlxAA7SUBcRcfpXaJRw4Rl07v0Cw/c7BcvW7Uah35UMcfW4ukP0A8luUrC4qLKjt57ENolhUUH1GvOkH/wAfd+VrR9lhv1orTnVS/ut9FtrRqz5kiOony6qoEj1srm5VUneQfqFnU+v9ezOUP+ZjT9FEtGrLhpjqRNqKLqLapIMJqZrhzjeWn9rgfquq0TrzRVFh6T0Tz7svR88j4rUq2Nen60fhuTlHTovLDcXvdVWoSVREQBERAEREAREQBERAEREARFQlAVXiSQNBLiA0Ykk2AHMlYOmtMRUkZkmdZuQHvOPJo4lQ5rTrbNXmx/DgB6MYN78i4+8fILctLKpcPbZeJDeDstY9o7IzuUbRK7G73X3B2DN30UdaV0tPVO3qiR0hGIBPRHY3IdqwUXpbeyo0PVW/iyjeQiItsgIiIAiIgCIiA2+hNZKqjsIZTuD3HdJn7T7PcVJmrWvsFVZktoJuRN2O+Vxt4HzUOIQtG5sKVflYfiSng+lLqqh3VDXuSltFUXlp8gc3s7Pib1f2UuU1SyVofG4OY4XaQbgheaubSpbyxLjuZdMvIqBVWsSEREAREQBERAEREAK1mn9Mx0cJllOAwaBm53BoWbV1DYmOkkO6xgLnE8AMSoK1r1gfXzb5u2NtxE3kOZ/Uc+9btjZu4qb+qufwQ2Y+ntNS1svpJT1MaPZaOQH34rWoi9ZCEYR6Y8GMIiK4CIiAIi7HZfooT1Rkdi2ABwv8TiQz6E9yw16yo03N9xKNzqzs4aWiStJuRhE02t87hiT1DLrXUjUfR9rert7buv43XQNCwdKaZp6UXqJo4gct9wBPYMyvJ1LytUllyZfZHG6c2aROBdSPMb/heS5p6r5t8x1KNK+ikp5HRTMLJG5g+RB4jrU8aK1gpKo2p6iOU8muF/252WBrtq22uh6IAnYCYj9WE8j/ANLcstTnCXTVeY/NEYT4IORVIIwIsRgQcMRmLcFRemRQLpdTda30D7Ou6mcem34f1t6+Y4rmlVY6tKNWLhPhhbH0dSVDZGNfG4OY4XaRkQryiDZzrR6s/wBXld+BIegSfYf2n3T/AFxUvBeQuraVvPpfuMieSqIi1iQiIgCIiAKiqsLTFe2mhkmf7LGk9ptgO82UpNvCBHm1TT5LhSRnoizpjzObWdnE9yjpXqqpdK90khu95LnHrJurK9laW6oUlBe8xt5CIi2SAiIgCIiAKTdjlt2p+Leiv2Wfb7qM12myvSYhqnRuNhM0AfMwkjyLlo6lBytpJeRaPJImt+sTNHU5nkaXgOa0NaQC4uPC+GVz3KMdfqqi0vA2qpJAKuBp34n9B748CRY+0W5gi/vBdNtupnPoGOaDaOdjn25FrmfVwUFBeTismOpJ5weopC1wc1xa5pu1zSQ5p4EEYg9a+g9l+tLtI0x9L/5EJDZD8QIux/fYjtaV883Uv7BaV4FXKQfRuMLGnm5m+XeAe3xSSKUm84NXtEoBDXSWFmyASDtd7XmD4rmV3m163rMPP0X/ADK4RevsZuVvBvwMz5KIiLbIBF1NGzzWD1yn3Hn8aGzXcy0+w7yN+sKF1u9T9L+qVTJCbRk7kvLddxPYce5aOoWyrUXjlbolPBPSKgcqryJkCIiAIiIAo/2u6RLIYoAcZXFzvlZbDvLh4KQFDW1Kr360t4Rsa0dpu4/Vb+m0+u4We7ch8HHoqqi9aYwqqzUzbgvx4LBFU/msU60YPDJwbNF4hk3gCvayJ5WSAiIpAXpjy0hzSQ4EFpGBBGRB5ryiNZ2B0Om9cqurYY5HNbERZ7WtADud73K51rQMlVFip0adNYgkhzyCL54reav61VNEAyJwMQJPo3NG7ibnLELRopqUYVFicchbG71s0+a+VspZubrA2197EEkkHlcrSKqopp0404qEeESERFcgIURATnqJpP1mjiccXsHo39rMPpZdCoy2PVnSqIScLMkb24td5bngpOXjb2kqdeUV4/UyIIiLVJCIiAoVA2usu/X1B/XYfygD7KeSoC1tZu1tSD/mu88fuuxo3+2Xs+5WRqFRzwMyAkjrAlacuvicSV3qtXsyps6qLebhmMlrxC69rG6ytHvOI4BZqp2cavpAtwR7rQPFe0RbCWFggIiKQEREAJtnksd1a0cz2LHrZrmwyHmsZalS4aeIk4NlFVNdhketX1pVtKSTeaL55eCvRrOTwwXkRFsEBERAEREB1ezKo3K9g4Pa9p8Lj6KaVA+pD92vpz+u3i0hTwF5nWY4rp+KLxKoiLklgiIgChHaTSmPSEh4SBjx3jdPm1Tco32x6MJjhqm/wiWS/JIQQ7ucP9639NqqncLPD2IfBGRWC+hN8CLdazgUXqpU4y5KFmCIRg3PaV4Fa3rtzTSA6I5XxWvWvUqOm+mPANyCis0V9wX7leWzF5WSAiIrAK3PJutJ8FcWBXy3O6MgsdWfTHJJioATg0XccGgZknId5si67ZdoX1qua4/lwWlf23/DHe4X/lXJqT6IuTJJJoNmlC2ARyxl8paN+TeIdvWxLeQvwUSVFAaeSSEne9HI9t+YabA9RIX0TX1TYY3yP9ljS49gC+d6icyPc93tPc57u1xLj5lYtHc5zlKXBMi242x5LUOnJN7m/CxXX6paLFVVxROF4770g4FrcSD1HLvUy6xaMhlpJY5GN9GI3ECw6O602LeRC2L+97KcaaRCWT5/hddoJzsri8RCwA6gvbaaSUiOFjnyvNmtaLkrp9XRDLKnkOBVV50tq5V0RY6oidGHEbrsCL8rg4HqPcvSpQrKqsolm51Nbeupx/qDyBKnsKENnMO/Xxfp3neDSPupvC4OsyzWS8EWiVREXILBERAFjaQo2TxvikG9HI0tcOoj6rJRAfN+l9GyUE7qabHdP4b8t9p9l39cbhWlN2vGqLNIw2uGTsuYn2vYnNp5tKgirhmpJHQzsLXtzaeXAg8RnivTWF+pxUZclGjJcL55KwKRnLzXqKpa7jY9aurp+hPcqEVVRXAVV5c4DM2WLNWj3cetUlNR5BdqZ90dZyWsRxubnEpYnAXJOAAFyScgBxK0KtRzfkSiscbnENYC57iA0DMk4ADrJsvobUHVv/8APpgx1jM/pzEfFbBvWAMPHmtBs11DNLapqh/iCPw2f5QOZPN58u9dXrRrBHQwmR+LzhGy+Lnf9DiVxbms60lSp7/cukcptU09usFJGek/pTdTRi1vaTj3dajGyu1lU+Z7pJDvSPJLj1n+rdwV3RWj31MzIYx0nm3YOLj1AL0NtQja0ce9lG8kibJNElrJKlw9uzI/lBu895sP5V0G0LSQp6KT4pPw2/zZ+V1u9GUTaeJkTPZY0NHXbj35qJtpum/WKgRMN4oLjqLz7Z7rW8ea4VFO8u+p8c+5cFuEccpB2RaO3pZpyOixoY35nYu8gP3KPibYqeNTNFeqUkcZFnkbz/mdiR3YDuXU1at0UOnvl+siJgbTS31CQOF7uYG/NvixULqRdr2k7mKmHC8j+32WD/2Pgo5TSabjb5fe8iXJIOx+kvNPKRgxjWDteST5NHipUXK7N9G+gomEiz5SZHd+DfIBdUuFfVe0uJNez4FlwERFqEhERAEREBQrSaz6r0+kGbs7ekAdx7cHsvyPLqOC3ZXB6V2mQxSFkUTpg02Lt4MH8uBvkeSz0KNWpL+JZYI61m2fVlGSWtNRDjZ8TSSB+qMXI7rhcmyTkfAr6I0FrpS1dgH+ik+CSzSflN7O7isrTOqdHV3M9OwvPvAbrv3Nxut6N5UpPpqxK4yfOIqH/EVQzO+IqY63ZDSuxhnmi6juyDzAPmtU/Yy/3a9tuumP2mWwtQpvlv5jBFxKXUt0extg/OrHvH+nE2Pzc566bROzvR9Pj6H0rhxlO/5HAeCxzv6S43GCFtX9WKquP+HiJZxkddsY/myPddTJqbqFBo+0jyJqn4yLBvMMacu3NdVNKyJl3FsbGjMkNaBw7Fw2se0eOMFlGBK/Lfdgwdgzd9Frdde6fTBbfvLJ2R0+smsMNDHvym7zfcYD0nHq5DmVCmnNMS1kplmOOTQMmj4QsaurJJ3mSVxfI7MnPs6grBK7llYRt1l7y8fAo2LqX9nWq5pY/TSj8eQCwIxYzgO05larZ/qWQW1NULZGGMjEcnO+w713GntMRUcRllOAwaBm53Bo6/8A6ufqV46j7Glv4+fkWSNTr3rGKKCzD+PICIxyHF56h9VCYWdprSslXM6aX2nZDMNHBo6v+1iRRue4NaC5ziA0DEknAALpWNqrenvy+Sre50ez/QnrdUN4Xiis+TkTfoN7yP8AaVM1bUthjdJIbMYC5x6gtVqfoIUNO2PAyHpSkcXEZdgyXHbU9Yt4ikiOAs6cjnm1n3PcuNVcr656V6v28Sy2Rw2l9JOqpnzPzebgXvYe63uFld1e0Wauojhxs49MjgwYuPgtapW2V6D9FG6peLPlwZfgwce8/QLs3lZW9v6O3ciq3O8jjDQABYAAAcgMAvaIvImQIiIAiIgCIiAxtJRF8MjWmznMe1p6y0gea+dHRlpLXAtc3BwOYIzBX0mVoNYdUqatxkbuS8JGYO7/AIu9dLTr2NvJqS2ZVrJBVluNF6zVdNhFO4N+F3Tb4Oy7lutLbOauEkxFs7OFrMd+0n7lcnVUz4juysdG7k9pafPNegjVt7hcqXkV3R2lJtPqm/mRRSdm8w+OI8lsWbVR71IR2TX/AOCjRFilptrL/n4MdTJJl2qn3KT9032DPutTWbSax/sCOIfpaXHxcVxiKYadbR3UfiMsy9I6SmqDvTyukPDeOA7G5BYqzdG6IqKk/gQvkHMNO7+44ea7PQuzKR1nVcojb8EfSceYLsh3XV6l1b0I4bS8l/Q5OFoqSSZ4jiYXvOQAue3qHWpT1Q1DZT2lqbSTYFrfcj5H9TuvJdVorREFI3cgjDBxtme1xxK5zWfX6CmuyC082WB6De1wz7B4hcatfV7t9nRTS/eS2McnQae03DRxekmPytHtPPJoUKax6flrpPSS4AXEbBkwHgOZyueNliaT0lLUyGSd5e888gOTRwCxF0rHT4266pby+hDeQpQ2a6qmMCrnb03D8FpHsg5vPWeHV2rB1C1JMhbU1TbR4GKMj2uTnDgBwHG/j2+tGscVBHvP6Ujr+jYM3H7DmVq6heOpL/Ho7t84+n5CWN2YuuuszaGLo2M77+iby5vI5DzKhJ7y4lziXOJJJOJJOJJPNZOldIyVMrpZnXe7PkBwaOoKzTwOke1kbS57iA0DMk5LdsrSNtT3572G8m01U0Ga6obHiIxZ0pHBt8QDzOX9lPEMYY0NaLNaAGgcABYBaTU/V1tDAGYGR3SlcOJ5DqGQW+XA1C67ept6q4/JZLBVERaJIREQBERAEREAVLKqICll4mga8br2hzeTgCPAq4iA0lRqjQye1TR36hu/Ra9+z3R5/hOHZI8fddWqFZlc1Y8SfxYOWi2f6Pb/AAifme8/dbOl1bo48WU0QI4locf911zG0vWaWmLIIHbjntLnuGYbewDTwJxxUYz180n5k0j/AJpHu8iV0rezubmHXKo0n7WVbwT3W6ZpoPzZo2EcC4X/AG5rlNLbTKeO4p2Onf19BviQT4BRKGgZAL0tylo9KLzNt/IhyN9p7W+qrAWvfuRnNkd2tPbxd3rQBAMgMzkBxPJdboLUCqqLGQerx83i7j2Mv9bLflKhbQ7or9+JG7OWghdI4MY0ve42a1ouSexSfqdqA2IiWss6TNsebW9bviPVkOtdToDVynom2hZ07dJ7sXu7+A6gtwuFeapKp6FPZfNllEx66f0Ub5LXDGOdb5W3+y+fdI6QkqZHSzO3nuz5DkByAX0PMwOBaRcEEEcwRYhRLpXZtUsefVi2SIk7u87dc0cA6+faE0mvRpuXaPDfDElk4gf19v7KXdn2qHqo9POP8Q4dFp/htPD5jxPcvep+orKQiWciWf3cOizsvm7rXaAK2oaj2v8AHT4734hIAKqIuOWCIiAIiIAiIgCIiAIiIAiIgCoVVEBw+0XVWSs3JqexlYC1zThvNvcWOVxjgc7qPo9UK92ApZO/dHmTip4Sy6FvqVWjDoSTRDRDVHs6rnnpBkQ5uffyaCug0dstYDeoqC/9MbdwfuJJ+ikayolTVLmffj2DpRq9E6vU1L+RE1p+LN37jitoqotCUpSeZPJIREUAIiIAiIgCIiAIiIAiIgCIiAIiIAiIgCIiAIiIAiIgCIiAIiIAiIgCIiAIiIAiIgCIiAIiID//2Q==;" vertex="1" parent="1">
                    <mxGeometry x="133" y="571" width="61" height="61" as="geometry"/>
                </mxCell>
                <mxCell id="10" value="EntraID" style="image;aspect=fixed;html=1;points=[];align=center;fontSize=12;image=img/lib/azure2/other/Entra_Identity.svg;" vertex="1" parent="1">
                    <mxGeometry x="115" y="318" width="68" height="60.440000000000005" as="geometry"/>
                </mxCell>
                <mxCell id="14" style="edgeStyle=orthogonalEdgeStyle;html=1;" edge="1" parent="1" source="13" target="5">
                    <mxGeometry relative="1" as="geometry"/>
                </mxCell>
                <mxCell id="13" value="dagster-moto-hpr.data.interne.cloud.april&lt;div&gt;dagster-ap-hpr.data.interne.cloud.april&lt;/div&gt;" style="image;sketch=0;aspect=fixed;html=1;points=[];align=center;fontSize=12;image=img/lib/mscae/DNS_Private_Zones.svg;" vertex="1" parent="1">
                    <mxGeometry x="-220" y="336" width="50" height="50" as="geometry"/>
                </mxCell>
                <mxCell id="15" value="git2.april.interne.fr" style="shape=image;verticalLabelPosition=bottom;labelBackgroundColor=none;verticalAlign=top;aspect=fixed;imageAspect=0;image=data:image/svg+xml,PHN2ZyB4bWxuczp4bGluaz0iaHR0cDovL3d3dy53My5vcmcvMTk5OS94bGluayIgeG1sbnM9Imh0dHA6Ly93d3cudzMub3JnLzIwMDAvc3ZnIiB4bWw6c3BhY2U9InByZXNlcnZlIiBzdHlsZT0iZW5hYmxlLWJhY2tncm91bmQ6bmV3IDAgMCAxMDAgOTI7IiB2aWV3Qm94PSIwIDAgMTAwIDkyIiB5PSIwcHgiIHg9IjBweCIgaWQ9IkxheWVyXzEiIHZlcnNpb249IjEuMSI+CjxzdHlsZSB0eXBlPSJ0ZXh0L2NzcyI+Cgkuc3Qwe2ZpbGw6I0UyNDMyOTt9Cgkuc3Qxe2ZpbGw6I0ZDNkQyNjt9Cgkuc3Qye2ZpbGw6I0ZDQTMyNjt9Cjwvc3R5bGU+CjxkZXNjPkNyZWF0ZWQgd2l0aCBTa2V0Y2guPC9kZXNjPgo8Zz4KCTxwYXRoIGQ9Ik05NS45LDM2LjVsLTAuMS0wLjNMODIuOCwyLjRjLTAuMy0wLjctMC43LTEuMi0xLjMtMS42Yy0wLjYtMC40LTEuMy0wLjYtMi0wLjVjLTAuNywwLTEuNCwwLjMtMiwwLjcmIzEwOyYjOTsmIzk7Yy0wLjYsMC40LTEsMS4xLTEuMSwxLjdsLTguNywyNi43SDMyLjNMMjMuNiwyLjdDMjMuNCwyLjEsMjMsMS40LDIyLjUsMWMtMC42LTAuNC0xLjItMC43LTItMC43Yy0wLjcsMC0xLjQsMC4xLTIsMC41JiMxMDsmIzk7JiM5O2MtMC42LDAuNC0xLjEsMC45LTEuMywxLjZMNC4yLDM2LjFsLTAuMSwwLjNjLTMuOCwxMC0wLjYsMjEuMyw4LDI3LjdjMCwwLDAsMCwwLDBsMC4xLDAuMWwxOS43LDE0LjdsOS43LDcuNGw1LjksNC41JiMxMDsmIzk7JiM5O2MxLjQsMS4xLDMuNCwxLjEsNC44LDBsNS45LTQuNWw5LjctNy40bDE5LjgtMTQuOGMwLDAsMCwwLDAuMSwwQzk2LjUsNTcuOCw5OS43LDQ2LjUsOTUuOSwzNi41eiIgY2xhc3M9InN0MCIvPgoJPHBhdGggZD0iTTk1LjksMzYuNWwtMC4xLTAuM2MtNi40LDEuMy0xMi4zLDQtMTcuNCw3LjhDNzguMyw0NCw2Myw1NS42LDUwLDY1LjRjOS43LDcuMywxOC4xLDEzLjcsMTguMSwxMy43bDE5LjgtMTQuOCYjMTA7JiM5OyYjOTtjMCwwLDAsMCwwLjEsMEM5Ni41LDU3LjgsOTkuNyw0Ni41LDk1LjksMzYuNXoiIGNsYXNzPSJzdDEiLz4KCTxwYXRoIGQ9Ik0zMS45LDc5LjFsOS43LDcuNGw1LjksNC41YzEuNCwxLjEsMy40LDEuMSw0LjgsMGw1LjktNC41bDkuNy03LjRjMCwwLTguNC02LjQtMTguMS0xMy43JiMxMDsmIzk7JiM5O0M0MC4zLDcyLjcsMzEuOSw3OS4xLDMxLjksNzkuMXoiIGNsYXNzPSJzdDIiLz4KCTxwYXRoIGQ9Ik0yMS42LDQzLjljLTUuMS0zLjgtMTEtNi41LTE3LjQtNy44bC0wLjEsMC4zYy0zLjgsMTAtMC42LDIxLjMsOCwyNy43YzAsMCwwLDAsMCwwbDAuMSwwLjFsMTkuNywxNC43JiMxMDsmIzk7JiM5O2MwLDAsOC40LTYuNCwxOC4xLTEzLjdDMzcsNTUuNiwyMS43LDQ0LDIxLjYsNDMuOXoiIGNsYXNzPSJzdDEiLz4KPC9nPgo8L3N2Zz4=;fontColor=#000000;" vertex="1" parent="1">
                    <mxGeometry x="-528" y="912" width="60.87" height="56" as="geometry"/>
                </mxCell>
                <mxCell id="28" style="edgeStyle=orthogonalEdgeStyle;html=1;dashed=1;" edge="1" parent="1" source="19" target="22">
                    <mxGeometry relative="1" as="geometry"/>
                </mxCell>
                <mxCell id="19" value="code location ap" style="shape=image;verticalLabelPosition=bottom;labelBackgroundColor=none;verticalAlign=top;aspect=fixed;imageAspect=0;image=data:image/svg+xml,PHN2ZyB4bWxuczp4bGluaz0iaHR0cDovL3d3dy53My5vcmcvMTk5OS94bGluayIgeG1sbnM9Imh0dHA6Ly93d3cudzMub3JnLzIwMDAvc3ZnIiB4bWw6c3BhY2U9InByZXNlcnZlIiBzdHlsZT0iZW5hYmxlLWJhY2tncm91bmQ6bmV3IDAgMCAxMDAgOTI7IiB2aWV3Qm94PSIwIDAgMTAwIDkyIiB5PSIwcHgiIHg9IjBweCIgaWQ9IkxheWVyXzEiIHZlcnNpb249IjEuMSI+CjxzdHlsZSB0eXBlPSJ0ZXh0L2NzcyI+Cgkuc3Qwe2ZpbGw6I0UyNDMyOTt9Cgkuc3Qxe2ZpbGw6I0ZDNkQyNjt9Cgkuc3Qye2ZpbGw6I0ZDQTMyNjt9Cjwvc3R5bGU+CjxkZXNjPkNyZWF0ZWQgd2l0aCBTa2V0Y2guPC9kZXNjPgo8Zz4KCTxwYXRoIGQ9Ik05NS45LDM2LjVsLTAuMS0wLjNMODIuOCwyLjRjLTAuMy0wLjctMC43LTEuMi0xLjMtMS42Yy0wLjYtMC40LTEuMy0wLjYtMi0wLjVjLTAuNywwLTEuNCwwLjMtMiwwLjcmIzEwOyYjOTsmIzk7Yy0wLjYsMC40LTEsMS4xLTEuMSwxLjdsLTguNywyNi43SDMyLjNMMjMuNiwyLjdDMjMuNCwyLjEsMjMsMS40LDIyLjUsMWMtMC42LTAuNC0xLjItMC43LTItMC43Yy0wLjcsMC0xLjQsMC4xLTIsMC41JiMxMDsmIzk7JiM5O2MtMC42LDAuNC0xLjEsMC45LTEuMywxLjZMNC4yLDM2LjFsLTAuMSwwLjNjLTMuOCwxMC0wLjYsMjEuMyw4LDI3LjdjMCwwLDAsMCwwLDBsMC4xLDAuMWwxOS43LDE0LjdsOS43LDcuNGw1LjksNC41JiMxMDsmIzk7JiM5O2MxLjQsMS4xLDMuNCwxLjEsNC44LDBsNS45LTQuNWw5LjctNy40bDE5LjgtMTQuOGMwLDAsMCwwLDAuMSwwQzk2LjUsNTcuOCw5OS43LDQ2LjUsOTUuOSwzNi41eiIgY2xhc3M9InN0MCIvPgoJPHBhdGggZD0iTTk1LjksMzYuNWwtMC4xLTAuM2MtNi40LDEuMy0xMi4zLDQtMTcuNCw3LjhDNzguMyw0NCw2Myw1NS42LDUwLDY1LjRjOS43LDcuMywxOC4xLDEzLjcsMTguMSwxMy43bDE5LjgtMTQuOCYjMTA7JiM5OyYjOTtjMCwwLDAsMCwwLjEsMEM5Ni41LDU3LjgsOTkuNyw0Ni41LDk1LjksMzYuNXoiIGNsYXNzPSJzdDEiLz4KCTxwYXRoIGQ9Ik0zMS45LDc5LjFsOS43LDcuNGw1LjksNC41YzEuNCwxLjEsMy40LDEuMSw0LjgsMGw1LjktNC41bDkuNy03LjRjMCwwLTguNC02LjQtMTguMS0xMy43JiMxMDsmIzk7JiM5O0M0MC4zLDcyLjcsMzEuOSw3OS4xLDMxLjksNzkuMXoiIGNsYXNzPSJzdDIiLz4KCTxwYXRoIGQ9Ik0yMS42LDQzLjljLTUuMS0zLjgtMTEtNi41LTE3LjQtNy44bC0wLjEsMC4zYy0zLjgsMTAtMC42LDIxLjMsOCwyNy43YzAsMCwwLDAsMCwwbDAuMSwwLjFsMTkuNywxNC43JiMxMDsmIzk7JiM5O2MwLDAsOC40LTYuNCwxOC4xLTEzLjdDMzcsNTUuNiwyMS43LDQ0LDIxLjYsNDMuOXoiIGNsYXNzPSJzdDEiLz4KPC9nPgo8L3N2Zz4=;fontColor=#000000;" vertex="1" parent="1">
                    <mxGeometry x="-448" y="828" width="60.87" height="56" as="geometry"/>
                </mxCell>
                <mxCell id="30" value="Refference code&amp;nbsp;&lt;div&gt;location images&lt;/div&gt;" style="edgeStyle=orthogonalEdgeStyle;html=1;dashed=1;" edge="1" parent="1" source="20" target="22">
                    <mxGeometry x="0.4502" relative="1" as="geometry">
                        <Array as="points">
                            <mxPoint x="-421" y="554"/>
                        </Array>
                        <mxPoint as="offset"/>
                    </mxGeometry>
                </mxCell>
                <mxCell id="31" value="Deploy Dagster &amp;amp; Code location" style="edgeStyle=orthogonalEdgeStyle;html=1;" edge="1" parent="1" source="20" target="2">
                    <mxGeometry x="0.7484" y="-102" relative="1" as="geometry">
                        <mxPoint y="1" as="offset"/>
                    </mxGeometry>
                </mxCell>
                <mxCell id="32" style="edgeStyle=orthogonalEdgeStyle;html=1;" edge="1" parent="1" source="20" target="8">
                    <mxGeometry relative="1" as="geometry"/>
                </mxCell>
                <mxCell id="20" value="Infra Cloud Repo" style="shape=image;verticalLabelPosition=bottom;labelBackgroundColor=none;verticalAlign=top;aspect=fixed;imageAspect=0;image=data:image/png,iVBORw0KGgoAAAANSUhEUgAAAlgAAAJYCAYAAAC+ZpjcAAAABGdBTUEAALGPC/xhBQAAACBjSFJNAAB6JgAAgIQAAPoAAACA6AAAdTAAAOpgAAA6mAAAF3CculE8AAAABmJLR0QAAAAAAAD5Q7t/AAAAB3RJTUUH5QsBFgYi3qBPRQAAgABJREFUeNrt/Xe0JFlhp4t+O/K4sl3tHQ20d9XeO9pXlQQCCSTkERIIXc2TZt5CWvdK4s5a72r0BhBi5DAyCIGExAAyowGk9o23DY1t7011eXO8yYx9/4jIc9JEZoY3mb9vrYLszIyIHZERsb+zf7H3BiGEEEIIIYQQQgghhBBCCCGEEEIIIYQQQgghhBBCCCGEEEIIIYQQQgghhBBCCCGEEEIIIYQQQgghhBBCCCGEEEIIIYQQQgghhBBCCCGEEEIIIYQQQgghhBBCCCGEEEIIIYQQQgghhBBCCCGEEEIIIYQQQgghhBBCCCGEEEIIIYQQQgghhBBCCCGEEEIIIYQQQgghhBBCCCGEEEIIIYQQQgghhBBCCCGEEEIIIYQQQgghhBBCCCGEEEIIIYQQQgghhBBCCCGEEEIIIYQQQgghhBBCCCGEEEIIIYQQQgghhBBCCCGEEEIIIYRIhtEhEGIwW277b4DrYMw6YBOwEew6wAFrAcY2rKtNnnDs2PqXn2TWv+JkJo85CmdyAluv466sgOsCzW8D2LXrz1rAtn4oRKQ7+fjmzUu1DetdmqdQOqeSCywCs2BmLM6CwXW/dOUGHXMhJFhCROfI7X8A1hhr7FFYzgd7KXARcDrWHudJlh3HrgkWBseM1Wq1dVOMH7GRyWOPZt3LTmD9KScyccxR1CYnsNaaQImypForihG8mddqdYxxUz6NLLAMzAB7wD4FfN/CN7E8ZOAAYL901Sb9AEJIsITozZZt/3+MMVPWE6rXAbeBPQvLxtVay7Y0EdjW2sxirW1pjQLjGGob1rHupOPYdO4ZbDr7dCaOPhLjGKwrmRIpY7NdccvfAbPAY8C9wL8B3zaWhf1nwMPHSLaEkGAJ0RSrHf8dYB2Ym7D2rcDNwJFeldIhUj0Fq0WyVj+3YF2s62IMTBx1BJsvOJcjr7iIqeOPBWMUC4qqSFUvDgH3A38D3AcsfFktWkJIsMRoc+SOd2GNMca6lwJvt/BarN3YXsnYlgomZCtWq2C1iBaui7WWiaOO4KirL+Woqy9jfPMmrP98lhDFSpV/DsfbzizwGeC9WL6FwUq0hARLiBGVKwwbgbdg+S2wp6xVLJ1PCtuYgkW7YGGxvmhhYMOpp3D89lvYeOap+kFEoVLVtolk23oR+B/AXwMzkiwhwRJiRDjqR96F9U79lwN/APansUy0VTLWdlQ+gwSrn2S1tmS5YK3XRmBdrNtgfNNGjrv9Ro6+5grM+JgiQ5GTWKUqVZ2sAJ8E3gE8ayx86WqJlpBgCTG0bPmRP8TgAmYr8D7gxs4IsKdgtXwnWLLCxIQWcNsfhncbmLEax9xwDcdvvxlnalKSJanKdOU5dlr9AvAbwPetdfjK1RreQUiwhBhCuXoPxliAi7H8NdjL22o021n5ZBcTYv2osPV9A0dfewUn/th2nKkpSZakKvWV5z4aiLedbwG/CjxoMHzp6o36rcVI4OgQiJH5a8IAmLOADwKX9/qbw8T+O8SsrcOsvW5b3JiO12bttWvZ/+VvsOs/7sGurLR/Vwy3WNnsVuwH0qsNppnLVfd2LvOvubMtlls/97x+cyHBEmJYOPJH3wNwLPBe4OpAcQrjM4Z2KQqSqEH+1Uu6/CEb9n3hq+z74lfUgjUKUpWRWOUuVYNF8Sr/2jtucWqLfn8hwRJiiORqHPg/gVcHy1SAIXW1ICVpUTIt/7z/bm8rW5MsW2+w5677mHn4UYyjS1RSFX7ldvUZwpylKty2ftS/Bsev+9qMzgchwRJiCOQK4DXA2wjV3BQzJmxt3YobE2IwjsPKzBy7PnsnywcPKiocFrHKWKoKjACj/JXxq8CPAVz3VUmWkGAJUXVOAv4vYDODxClJTBi2ihkkXRhMbYz5Z55j3+e/rKiwylI1OhFgWDb71+JJ6mIlJFhCVJQjfvQ9zRP8F4ErB7lVeWLCte8e+No3WHj+BUWFkioqEAGG5QrgTY5ruPbrasUSEiwhKnlyu3Aq8GYiN1UVHBMaA47DyqHD7P/yV7GNhn7QsotVxlJVgQgwyl8av+Q69lSjxlkhwRKiWhz5I6vPXv04cHYIK4rkUfFjQhM6JsQ4GMfh8Pd+wOJLu0CtWOWTKkWAcbdzNpYfx8L1X1ErlpBgCVEdvJagLWDe4P2HCeVWnW+YLvEJK1KD7CxkTGhqrBw6zOHv/YD8RocURUjVEEWAYbZjgDcAW6yexRISLCEqx2XARcFiE0aUTMj3Oj5PMyb0X0//4Ic05ubVo7BIscpYqoYoAgx77C7yr1EhJFhCVIEjX/1HGBeAbcDGYEnqfuA8kketfsd0y1KYBSPFhDUWd+5i4cWdLbImqishIxEBhtnWRmC7sRqyQUiwhKhO/VjjGAy3djVaBcpOf9kqMib0WrEcGguLzDz8SMsch6JqUjViEWBYbrHGHqP4W0iwhKgOlwLndvnMQC8a0LIVSq7SiwlXBdAYZh55TDFhlnKQsVSNYAQYZuFz/WtVCAmWEGXmyFf/EXhPzW4D1odyqF7iZEJYWZ4x4Uu7WHjhBcWEpZcQRYARFl4PbHeAa786rfNSSLCEKDXGHgvcEtZzgjsZdsaEpvCY0F1YYubhRxUTllSqFAFGs7+WVd7c8CZiF0KCJUTJuQw4J5brmF4fdn4p75jQaYkJ5xQTJqvbM5EqRYCDC9qj6Odg1ZtQSLCEKC1HvuaPMHUHYDuwLt5aTEiP6nhGKvOY0Hgx4a7d3tQ5EqwCJUQRYNSFA1e39tV1wHZcy7VfUUwoJFhClLJStWPu8cDNscWqj2z1700YpXUrSNS81wNjwsUlph9Sb8IipEoRYDT7s4PEqp2bMeZ4ncRCgiVEKTGAuQzMWcmfj+ovW+1y1UecwsSEpkXcVl/3jglnH32M+uysYsL+FXbqUqUIcHBBB0pV722dDVyuk1lIsIQoGUe++o9Y3zgW2uLBqK1JPcSpq9HK9BjNIWhuwkGtWn1Glu8ZE+5h4bkRjwkVARZ07GJFgGGYArbffc1mrtXchEKCJUSZMMzX9p5AYDwY9cH03nYV/Ay86fNhr7JAd7zove4bEzoO7tIyMw8/PHoxoSLAAreTOAIMw023f3X6BA06KiRYQpSPK4AzwwlOCi1bQe8FxYimXaKMCXhAvldM2BYZGu+SNYaZRx+nPjMzGjGhIsCCjl2qEWAYzvSvYSEkWEKUgSNf/V4c2wAvHpyKJkwmWJLCxIT9JMyYCM+99/ticEy4tHsvC889P7wxoSLAgo5dZhFgGKaAHQb1JhQSLCFKg2tqJwI3xV9DPxOKEBOG2UTgStpbqUzQlztiwumHHsG6rqQqwsoVAYa3vwwiwDDcaDEn6Y4mJFhClIcrgTOSr2ZQs1OEuQm7egyuxX7GtLwX2JuwNT40ATGhw+xjj1OfGYLehIoACzp2uUeAYTgDy5V6DEtIsIQomC2vfi8rBmNhBzCZ2opNgGxFjQkj+Vyv3oQBPRKNwTgOS7v3Mv/cc9WMCRUBFnTsIkSAxezTJLDdGmOu/bJiQiHBEqJQxiwnATemV5eafiYEHf38BgtXWNEyLfMitvYmbB8XyxgHnBru8gozVYoJFQEWuJ0YEWBx+3SjsVYxoZBgCVEonntcheH0VuvJto4IihEjxoTQPuho5zKdLVuBvQkdZh97gvp0yXsTKgIs6NiVMgIMs53Tgat0cxMSLCEKYstr/gfgGDA7wEx0uU/SuiN0b8Lg8aziiVvH6674kNWWLuPUWNqzl/lnSxgTKgIs6NgV2gswrX2aAHaAVUwoJFhCFFiTnwzc0C04SWUrSW/CmGNtBYx/ZVrHwmpp2VrtTbi8wvRDD5cjJlQEWKDAlaYXYFrH7lVgXqb7m5BgCVEcVwOnBZhKrrLVdyqcODEh/R56b8qW9yzW7ONPsjI9XVxMqAiwoG1VNgIMw2n+tS2EBEuIPPHiQRy83oMT/eUogWyFcqtBvQmjtGoN6E1o2sXNOA5Le/cx/8yz+caEigBLI1V9i17dlr5x/9p2FBMKCZYQ+fMyVuPBMESTrUwHHe01J+GgmLBrLC0Hu5JTb0JFgAUKXKV6AabFDf41LoQES4icuQY4Nd6ig2XLRpStvq1TbTFhe8uWMWEGNTXB5TcOGD8mPHw4m5hQEWBB2xrqCDDMdl6J5RoNOiokWELkhBcPmmY8OJ58jQNkywTUX1kMOjpw+Ic+MeG+/cw/nWJMqAiwNFLVt+jDPd7XOLDDYGrXfkkxoZBgCZET9hTg+vTXGyA4XRGiGVzXxBYdEzhNTpiYcPqhh7GNRmmlShFgtIVHIAIMc+yut7inoGYsIcESIjeuBV6Z7SY6ZMuYLvey/n/YtmWC1kOfmJAeLU+DHpLviAmfiBkTDlsEWBmBG/kIMETTnH2lf60LIcESIkv83oM1vHhwLLcNmwGyBVhjUqybOieI7pwXsV3WjFNjed8B5sLGhLm0VhUkVaVu2VEE2H87XR+Oede6YkIhwRIia9MBzMvJJB7st82uMtD6TJQJekDeF65kctX6f0ExoT83oXGw9QYz/WLCHCNAqwhw4MKKAEMX5DqLfblVTCgkWEJkznWeZMUYLT0T2XLa31+dsLm1+vBlK3ZMGPTfretqxoRPsXKoIyZUBFiQhCgCDBEBhln8Fd41L4QES4hM2PKaPwaMHxm0xoMxp6ZJ6lZd75l2sUk8L2JQTNiynbZWLq834fL+g8w99bQna4oASyFVoAgwyg4HfMN7JMAwds2XDutGKCRYQmR0Bx/w12xWshV20NEez0oFPKfevy4aEBPSIVf+3IS2Xmf6oUew9Ubaxx1FgNEWVgQYviAhinodllfo/ickWEJkx/XAKeGlqBjZ6tsD0HRM4ExQhBhm3Z3b8eYmnHvyKZYPHkph0FFFgFEXVgSYqlS1fvEULNfrMSwhwRIiZbb82B+DYQzDdgy1eFKUgmwlnpuw+wH5oGK1jSAfJiY0a4OOLh9oiQkTiZUiwLALKwIMv8Ohi9n+xWbP4fFrvqiYUEiwhEibU2mOiZPIl+IunPbchAEtW61OhcGa1tat5scBMSEtg44O6k3YV6oUAYZdWBFg+IJEbK3q9cUcxr4TQoIlRpPgeLCkshVt0NGO8a66imT6zI3YHRPOPvU0ywcODogJFQFGXVgRYO5S1UrEyd2FkGAJ0ZctP/bH4M9LNvCczUO24sSEJs6chKw9p9X6zFbrc1uBMWGNlQOH+sSELRFgZWSnOKkCRYBRdjhmBBi2vtqOYkIhwRIiVU4FrsnCl6ItHDMmjLF9Q/t8hO3PbZlVZ2ubG9H/rm00mH7oYdx6vUOqcm6tUgQ4BMeukNaqXlwDnKbboZBgCZEa5lXAyQl8pRDZijU3oelTBtNjuh4T0JvwqadZPnDAnzNREWCYhRUBhi9IjlLVyskoJhQSLCGSs+XH/gQwE3jzkTmptA+lIVsmQKRSjQnpsf5ecxPSHiE6NZYPHmb2yadYNaxSy05xUtVXJUY2AhwsVgWJouPdC5hQTCgkWEIk5zTgqpQMKQXZMgMXTi8m7JSr9i2YoKEfnGZM6DLz0CMtMWGFxSBxha0IsCIRYBiuxnKaxsQSEiwh4urFL3+s+bJPPFhG2coqJgz6XvdD7uBN/mxqDnNPP8Py/gMpDDqaS+tEyhW2IsCS9QJMa59OAm4EuO1etWIJCZYQkTli3z6ASbxIIIQh5CxbJkh+OhbOJCYMeN1RcGO857BWDk0z99RTCQYdLaAiVQSY4XYK7QWY1j4ZvN6Ek3Pjuk8KCZYQcTmdtngwTUNKsioTarFE5fBlbXBMGFAevyXLui7TDz2CuxIzJlQEWH6pGnjsKthaNXg7V/n3BiEkWEJE4ZjXva/58kbgxAwMKWPZMn0WNO3f6RUT9itE35iw+drBODXmn36W5f37o7WeKQIsSBTTPHaVjQDDcKJ/b+CSe/bphikkWEKEpe7WIVI8WCLZCtWbMMEI8qFjQq834crhaWafDBETKgIsaJ+ykKrS9gJM69gZ/94wOTWhnFBIsISIypnAFdmtPqlsme5n3AO2EL4cPT5KEhMag3VdZh5+BHdlpSqtE6EWVgQYXaoqFAGG4Qr/HiGEBEuIMGx+9Z81X95E4ngwR9lqdRwTpFeDehM2H4x3CPWEfZiYkJaYcF9LTKgIsCBRTPPYDXUEGIYT/XsE131ZvQmFBEuIwSelYwEzhddTqAAiylavSLAtCYzTmzDgea1VoerxumPZ1ZhweobZJ5702sIUAea8T1lI1dBHgGHZDky5Dd03hQRLiLBecRbGXJHq41eZyFbI3oSxG8jWRm03raO294oJTe+YcLpXTFiK1glFgIoAY3EF1p6lQUeFBEuIAWx57Z80X94EHN82BUwlZavHlDptq+mMCenTwtU5RU6vgUoDYsJnn2Np7750Bx1VBJjhsRv5CLDPdmzz3/HAzWC55r5DuoEKCZYQ/SWGdQTFg6WVrRA9B4PeMybZo1+mh2h1lLEZE9abMWFSwVIEmINUKQLsI1Wdn2wH1lHT3VNIsIQYxNnA5YP9pqSy1Usbo6yqbSET0Juw84stMWJbSxgtMSFeb8Ll5QJaJxQBKgJMKFa9ucy/ZwghwRIiiC0/9ifNlzcDx0XzmzLLVsjehK0Pa63uU4jttYlYZ6tW85+DcRzmn3veiwmdkMdJEWCGEqIIcKBU2VAbOw64BeCa+w/qRiokWEJ0u4IBWE+S3oNFylZgTNghW3F6E/ZrHGt94L2rN2GLXPlzE3ox4ROrbWF5SFXfelkRYPxDMjoRYJiibbOw3joGISRYQgRzDnBpasKTm2yF6U2YwkTPxvi70ysmDOhNuPp9B2th5uFHg2NCRYDJt5VQqhQBxi7apf69QwgJlhCtbHndnzRf3gIcm4n/FCpb3Q+f9+xhSJjehJ371bqOXnMb+r0Jn3uBpT17vVYtRYAZSsjggigCtGkV7ViaMeHnDumGKiRYQqzdPQ3ABmBb5tvKUrZC9SZs/WIK5WiVrBCDjtZnZpl5/IlUrUIRYPiCRG6tGppjZ9NqrerFdmCDVUooJFhCdHEuacWDhciWGfi56du6Nag3YkdvQhPwML0vWqZz9PjW3oTWMvPwozSWlhI1bSgCzFCqFAFGL5rlEiznatBRIcESwueI1/550wBuAXN0YQXJVbZgcG9Ch/aYb8C6ggYaNZ3vezHhwvN+TOg4kao6RYDRCqII0GZbtPZjdzRwKxiu/twB3ViFBEsI490dN7LaezDpxMsFy1bomHDAd9oLE8PnusfCWo0JZ+eYDYwJFQEqAsxfqmKLVTfbwG5U1SYkWEKs3SvPs3Cx7SkXVZGtuDHhoMW6x7fqGxPSrzehp7Qzj7TGhIoAFQEmFKu8pKr/ghcD5+muKiRYYuTZ8to/a768FTiq/3102GSr13cCehN2fb9XL8RePQjXXhs/Jpx/4QWWdu/GtIwdpAgwWkEUAeYaAYbhKOA2gKvVm1BIsMQo4983N9Gj92BlZSv1mHBgQfrMR0jHKPEGHIfG7Dwzjz/Rvw5TBBi/qIoAs4gAw3C7f08RQoIlRp7zgYvi36yr17IVPyb0N2Za1mM6j0FQjNhRTlpiwsXFkspOBtvKS6oUAebRWtWLi4Ctuq0KCZYYWTa/9s+aPnAbhiPTuReXQbZMxAfko8aEA9bV2VoVMDdiMyZceOFFlnbvaR90tFDZyVNCFAEOlKryRYBhOBLvkQOu+ZzmJhQSLDGC+A0rm/Ga9GO7UWlly3TIVqYxYev6eowa3/mgvONQn5tn5rHHSyA7eUuVIsA0pSrnCDAM24DNFo06KiRYYnTZClzY041Sq4vyli0TbJSmNb7LKiaE3r0Jzeq8hM1xtmYfeaw7JqySGAyssBUBhhKrvKQqn/PhQiwXaNBRIcESI8fm1/1ZUwVuB7b09ZRhlq2+U+UkjQnbRSs4JhxjYedOFnftHjDoaKlaJ0JW2IoAB0pVNSPAMNs6gmZvwvsO6YYrJFhidDAYLOYIMLdF8pSqydaACNC0jrgedoLnUNvsMbxD62erMeECs0ljQkWAFTh2QxUBhing7cARSgmFBEuMIhd4/2JITiVkK+I4WZ3PbPVaR+KYkI6H8A0zjz5GY2Gh/K0TeUmVIsBqtFYNvr9cqNuskGCJkWHza/8cY+zaX5hJJWcoZCtIuEyXCEXaXuiYsMbizpfCx4SKALMWg/SkangjwFC3Gu8eY7n6c4d14xUSLDH8GAPWmi34z0ikak6lky0zOCYc9J3VzUcoQ9SYcH6BmcceK74iVQRYiFRVNAIMw21gtkQ5JkJIsETVuQivCT87cxqalq3OzXcOudDUtJgxob+u2Ucfb48JFQGWX6paxSovqapUS5/dCvYi1J1QSLDEsLP5de9r7T0YczqLqspWkkFHO5/JMh3PbPVYV5iYEH/Q0Z0vsbBz19qgo4W3TigCHChVWUeAUNGWvtUVbQJuN8BV92vQUSHBEkOMwWK9kZZvS2uN5ZetFGLCUPvV8cxWxJiwsbDI7GOPYbOMUxQBFiJVpW2tykSqulZ2m7UcZdSIJSRYYgS4GG/+wdT1bXhbtoKELSgGbB32wWHw3IStA48aZpoxoUm5b7siwORiNSxSlar8Dii091GouU6FkGCJynLE697XvBFuAzZmu7ViZGvwSk0I1xoUE0bZHwOO6TH8Q2tMaLzehLt2sfjSS974XJlLiCLAgVI12r0A4+1t93Y2AtswcPW9igmFBEsMJRYwR+NPxJof+clW31atzuEWgmLCrsVMSvvfUQ5jesaEM48+Hj8mVARYiFQNcS/A8Cvrv51breVoq0FHhQRLDCcGMBcD5xVchoJlK2ilGcSEnQ+2+1JlWmPD1ojQjwlnH3uMxnzEmFARYHKxykuqhi8CDPPxecAlugcLCZYYOrx4EIBtYDbkOxdgiWSr54PnrS1bvYTLxGzR6uhN2LkNX7KMcTC1Gou7drO4c+fgmFARYHKpUi/A6IUOsZ2AjzcA26yxXHWfYkIhwRLDhOcPx2A648G8J14uUrZMd/0QGBMGjOieyv4FrK/ztVOjsbjETK/ehIoAC5GqEe8FGOp8CFGUW4w1x+hmLCRYYhi5FDi3t5iMkmwFVQqdkeGgFcaMCbtEzrT/Mw6zjz9BY35+7TuKAJOL1bBIVarym1oEGIZz/XuQEBIsMRwc8eOt8SDrw4nJEMtWjwiwraLoFKc2AcoiJmQtJnS8mHDhRT8mVAQYX6oUAUYvdLwIMAzrge0WFBMKCZYYKo4FboknJsMkW2F6CpoA4TIJjkXAg/R9Y0LHiwkfDYoJFQFmIVWKAEkjAgzDzcZyrGbOERIsMUxcBpyT3GWGQLbot5iJULG0DyK6+l5XTEj8mHBuzv+KIsCBYjUsUpWq/OYaAYYpxjn+vUgICZaoNke87s+x4w7AdmBdui5TUdlqlZ4+i5iAKNGrIww2aG7C0M9stSzXJyZc2rOHhRdf7NubUBGgIsDIhc4uAgyzonXA9kZdMaGQYImqYwxmxT0euDlbl6mSbJmusT+7ZWtwlBhuqp5eIka4mDCgN+HIRoCtYpV10RQBZrlPN9fGOF4xoZBgiWHgMuCszFwmluSURbaC/CeEbLVJkcEav2VrVeBaY8JWoWqXqzAxYX1uDoxRBBhSrBQBpvZxVsfubOBy3ZaFBEtUliNe936WjtoDSeLBxB5TYtky9C9X3w6Dg2M722v7ps/App29CffsZeGFF/v3XFQEmKxoigDzPh+mgO1XHn83V2luQiHBEpXEwOSB408Ac3NuklMp2ep8O6A3YWfaF3GIBhsoZe2yZXpFho6Du7TcozchigBRBBjlfCiotaoXN31j9+0n6CYtJFiiylwBnFmI5JRatsyAMgQP3dD9aJVpl7GA3oStz3xZYzqGfmj+cwiKCDEOs088QX121ntPEaAiwPQ+LvLYnenfm4SQYIlqccSPvx+nPgZePDgVw4BGQ7bMYNnq2WhlTMxiN5/Z8p7b6iqHWWvZMrUaS3v3sfD8C4PnJiyVGKQrVYmKpgiwjOfDFLBjxbpcqZhQSLBE1XDH6icCN6VgQEMqW71iwgGtW0GiE7rzYndvQtv18HtrC1YNd2nFiwldtwJiEFKssi6aIsDynw+WG8dxTjLqTSgkWKKCXAmckbIBjY5sEUK2gqJA0/r/EUZxx7TUbS2S5TjMPfmUFxOm1YqlCDCd45eXVGXdWlXMsTvDv0cJIcES1eCI170fp+4aYAcwmaEBDYdshRnFIUSUOHC/usSsowAdvQmbLVvG8WPCF1KICRUBlkRC0pEqm2Excjh2k8B2rGOuukcxoZBgiSpgwB1zTgJuzNGAKipb4ecm7P5OjBHkDZ4kmQ7zaspU27q919Y4NJYTxISKAEsmVSMTAYbZzo0Y9yTdtIUES1RGsDBcBZxekAENj2xhwn2n7dkp6H6mCuicmzBw6AfTtV5vTCyH2Sefoj4TMiZUBJiOHOQlVdXrBZjSsbOng70KDesuJFii7Gz5iffjYL140DCRjwMNgWyFjgkHrSBKGdoHF11bLKBnoVNjad9+5p9/vn9MqAiwJBIy9L0AExy7ti9PADsMxlx1zwHdwIUES5QXi8HFORm4oRgHKptsxbSr0DFhFOnyX7f2JuzsQWiM/1bn+w5ur5hQEWDJpEoRYMQD8CqLPVl3byHBElXgajCn9Z5Db5RkK2oZksaEaxLVHRmaPoLWGQ3S1hOxGRPOPfUU9ekZ2gYdzUuqFAHGl6rh7AWYVsFOA67RbVtIsERpOeInPgDGOHi9BydCCYZkq7830ceJEheu13NbreNlrUkWTo2l/SFiwgKkKpEoqBdgCUQxzWMXee/GgR1YnKvuVkwoJFiirFj7MjrjwSiCMbKylVVM2KNQq8+7m+44MGi6HWMwjoO7Umfm0UczHHRUEWDslSkCjF8oyw3Ay3QDFxIsUWauAU5NLDmSrQFyFTcm7Bat7jKY7s+MN1+hMQ5zTz3NyvR0ioOOKgJMLFWKAJPu0ytRTCgkWKKMePEgzXhwPFXJGSXZMoNlK910rkfrlT8XYVdrllNjaf8B5p97LllMqAgwfqEVAaYlVa1vjVvYYaF2pWJCIcESpcNyCnB9ppIz1LIV1MLUKVtZxIT0mD7HtJfBf9Ddrdf93oSN+GKVtbMoAizJPqW5nUQRYJBUda7teuAU3ciFBEuUzK3AwrXWa2rPR3JGTbbCRomJYsKO112DljoYp8bc00+zcjhkTKgIMLlUKQJMZZ8GrOmVwLW6mwsJligNm3/iA1hDDS8eHMvmXj1CshVizFBjOj5IlBsOiglbJc0Bp8bygYP9Y0JFgPELrQgwE6kKsbYx/x6mmFBIsER5MJaXExAPSrbi2hXt8tS2KRMsR3G21W/Q0Y7vrUqXcXDrDS8mbDSCxSprZ1EEWJJ9SnM7mUeAYbgOeLnu6EKCJcrEwBtTobKVvWJmsCHTU4rWPu41WnuUmJA+o9HTHRM2Bx19+hlWDh+OLFaKAKPtkyLA8IumsIuv8O9lQkiwRLFs/okPAmYMzA7v/3Ouv8LKVtVatQJ7FwZ8pc2rgh6INxHLzeCY0J+bcPngQeaefTZ0b0JFgNGlShFgeKlKaTe9Rx0sY1fepZhQSLBE8bT81RetYs/uD+sqy1aMId1DT0Ld+YD8oJiwsyWMwTFhGr+vIsCS7FOa2ylFBBhmO9f59zQhJFiicK4jsHuzZCsb2Row6GhXT8TOmNCEk7auTXTGhDXmnnmG5cOH25ZVBBhtnxQBhl80Q6lqXXEKw80IIcESCdj8+g+CWet5k6ZgSLYIHxN2fcd0b6Zrc70+iBITOqwcPMz8s8+CMYoAY0iVIsDwUpWZWHXjxYSGccWEQoIliuRUDNdGExPJ1uANZTTzc2BvRNM+cnuUmLAxOCYstMVFEWCO26lMBBhmxddi0xzTT0iwhIhO++jHkcVEshVPtky4/+7Xm7Dnpnq0bvWMCZ9l+dChwcKnCLD8UhW5wJWMAMPQZ9J6ISRYIkP8eHAcLx50UnAnyVbQhroeZg8bE0bcVJdc0T4vYr+Y8NAh5p/p05tQEWAJRDHNY1f5CDBs3bgdFBMKCZYoAsuphJ2BXrIVc9uDymASrr5dpkzQVD2mo0XLtDybZRzchsvMo4/i1uv5t7goAsxxO0MVAYbhGuA03eiFBEsUwauAk9N0lmrIVhr7lFS2IHFMOPBwd8xTaDpkyzirMeH8s8+xcvCQ974iwPJKVeQCD20EGIaTUUwoJFgiTza//oOAmcBrQk92DlVStnKeqiewN2G7cCWOCXuJpDEtotW6neZ3/LkJD08z/8wzoQcdLb4iVQSYt1SVLAIMWz/uwDJx5Z2KCYUES+SCATgNzNV5estoylbY3oQxNxQUE66WO2A+wqZsOWvfMcbBNlxmHnusPSYsrVQpAkzdWKoZAYbZzlUoJhQSLJEHE2+9t/nSjwczysYkWyFkywzYSNDkzSFjws5tBIjY6mtjMLUac88+z8rBgwlbz9JunVAEmFnBqh8Bhjh29mSwN4Ll1i8uqwIQEiyRHVMHHgeYxOs9GGW+FslWkn1KNOioSVB+uiJJ0zmptHG83oTT08wliQkVAeYkIYoA++9T2xsG71GIyZn5GVUAQoIlMud04KqUrUiyZcLaVdBXTIQyBHhxlJiws1jNmNCNERMqAsxxO4oAQ0pVJ1f59zwhJFgiG477ib9ovrwRODFDK5JshZatCIOQmo6Wp7RiQv+hLOPUmH/ueZYPHAg/6GheUqUIMJV9GsIIMMyGT/TveVz0H3tVEQgJlkifRa/OnMRrMo9pS5Kt2LIVOyYMWwYT/JkhRExoVmPCnr0JFQHmJCGKAPvvU+Q9MniPRExOOqoyhQRLZMeZwJUFWdEIy5YZXMTYD5d3TqPTERMSJSa0zDz6GO7KSoZSpQgwdWMZ7QgwDFf49z4hJFgiXTa9bjUevIlI8aBkK1PZ6hKgTvPp+O+umHDQ9jtHce9cV0BM+LwfE6byWyoCzKxgigCjcKJ/7+Pau/apQhASLJFilV8DYAovHsx6ayWTrSLrkSDB6SFbBH8llUFHjekab6tnTDgzw9zTTyccdFQRYN5SNcIRYFi2W8vUimsQQoIl0uYs4PKc1a4EshW9DLnIVuDHJuahMv17E3Y+CGYCjK41Jnzs8bWYMK2jpggQRYC5SxXWrv67wr8HCiHBEulwxOv/otlCcROGEyjsD7iMZSujMuQjWyaEbEWJCXttk475CDvL4MWEC88/z/L+/SHWrwgws4IpAky0naZYtXA8cDPAFf9xSBWDkGCJFO41XiW5DtjeHhnBUMlWxs9rpVYX9ZybsLWXX4BsJT0wgb0JaZct481NuDI7OyAmVASYt1QpAgyxqaZY9f7KdmAdpqGKQUiwRGqcTVc8KNnKX7ZCDLtgAsZ2GNDgtbZs6zJhehN2jJG1GhMSEBMqAszMWBQBJpeqcKu+zL8XCiHBEsnY8oa/ar68GThucCuHZCuJbEUv2KD/NgSOq2BaJ2+OExN2i9iaePm9CV94gaV9+/zPFQGmXjBFgIm2E0GqWjnOvxdy5Z0HVUEICZaIj+vd3NYTqfegZCvuAqHrssiDjvYRqUEDmrb9pvSICaGtVctxqM/OMff0U92bVQSIIsB++1RoBBiG7cB6a11VEEKCJRJzDnBpIiORbKUoW3HnJuyVE5r25Vqf2UoSE1rL7GOP4y4vh6qwFQGGX1QRYLRtxWyt6sWl/j1RCAmWiMemn1wdXPQW4NjUjESylaFsRR10tLU34KAido57FbSu5ud+TPjii15M2Gc/FQGGX1QRYHSpymDtx/r3RK78dw06KiRYIo4zWAOwAdiWmeRItuLL1qCY0JgIg46GGWOLjqEfQsaET3X3JlQEGF2qFAGG2FR2UtW5T9uxbLBGg44KCZaIz7nEjgerKltF+lvYBUz6VVXX+FgBMWGrRLUJV6+YEGYef5yGHxMqAgy3qCLAaNtKOQIMs0+X+PdGISRYIhqbXr/ae/AW4OjcJadQ2aravIidshVzbsK+wtnxu7T9RsEPvzdjwoUXd7K0dy+J/tpXBFjRY1fJCDDM+XA0cCvAlZ/dqwpDSLBE1MYMs5Fc5h6UbMVbwPTsTbgWI5peP25KBW+JCYNatZwa9bk55p56Kt7chIoAcxLFNI/dUESAYXZhG7DROqpGhQRLROc8MBcXnNtJtnoukJlZ095DcO216Spw55Q5LetxDMYYLDDz+BM0lpbK1eKiCLASUlVQBBiGi717pBASLBGSzT/1V82bzK3AUZkLhmQr5mr7PZgeHPm11yFhYsIeEmZaJMwEyZb/uePFhIsv7WR5315Mr7/2FQGWX6oCd2BoI8AwHAXcBnDlf+xXxSEkWCIELuCwib69ByVb5ZCtjpamoCEXesSEyerlICkzfgzY8c+pUZ+fZ/bJp9Ks3DKUEEWA/fdpZCLAMNwObLIIIcES4W9A5wMXFSoYkq2YqzXEH2fLhIwJAyTLdLznT/7s9SY0zD7xBI3FpfzkQBFgJaSqxBFgGC4CzleFISRYYiCbf/Ivmy9vA44sjWBItkKstldMuLaAGdibMGQ91DMmbJGr1dd+b8KdL7G0dw/GZHzbUQSY4rEb6QgwzIqPBHsbWK7QoKNCgiUG1t6GzRhuT+4Gkq18ZMsMnpvQdMoWoXoT9q/be8WEAZ87Do35BeaCYsLcJUQRYP99UgQYesXey21YNqvuEBIsEYatwIXpuoFkK9NjETkVDBCuni1Q3v9bDNZ0jLNl+kyf0/y8Oego+DHhYkGVqCLA3vukCDDWCeBxIXCBqg0hwRI92fxTf928adwObMnODcomWwyRbJmO1ZqAb5je0hmlHF0S1k/S/Jhwlx8TJhk7SBFgittSBBj6YPX+nY6g2Zvws4oJhQRLBN5PLJi1m0U+blAG2TJDIFt9YsI+shW8qfDlsKtDP5iWeqdXTFijMb8Y3JswVQlRBBhOqhQBDvxhwm/nduAIq6kJhQRL9OEC4jR3S7ZKJFshVmkYsG7TPr5VQG/C1f9taamypjVGbHnWy6wNOho6JlQEmKLAKQKMtPLo27mA1scqhJBgiSab3vChZm15O5gjElXsqXiBZCvWsQgUpx4xoQlYxpgQZtbrGayA7RmzNqipHxMu7trF0p7dgwcdzbrWVQSYilSNQAQYhs3A7Vi44j8UEwoJlmirQy3Wmi0Wbmsf6TuBVaQmJSWVraLLEWxXHW+FGHQ0lhT3eDi+9fMW4VodY8upUV9YZPbJJ7E2bpORIsBwUqUIMGOp6uQ2DFvQqKNCgiUCuIiWeLB7WhXJVlsZTJllK+wqTB93Gjzo6OrYWsZ0H5eAmLD5vZknnsBtxoSKAFPYJ0WAsU6AdNlK6MGZhQRLjASb3vBXzYr0dmDT4HufZKvUshUlJuz8TltcGPLwmo7j0LGQ6ehNSK3G4q7dLO7eHWLQ0QpEgJmueNA+KQIMfbCydVCsN2XO7dZYLvus5iYUEizRbF2w9ki8yZ0j3rYkW+WSrYBnpcLGhFEPb9AzV53ja5nuGNEYh8biUndMmLFUadqaEJsa3V6Aaf0st+Gao4xyQiHBEi1cjNfEneAmI9kql2z1EK62T80A4QqICU23OJle3+uchLolJpx9siUmTNqUoQgw0XbUCzC1nyXCHK5CgiWGmk0/+dfNe8M2YGN6t7iyyVaRFCBbPWPCQQfWhBjCod/qgpZvjotlvFuOqXkx4e49LO7ehXEM6gXYv1kkS6lSBBhxS/23s9G/l3K5Bh2VYOkQCANHEzIerK5sjdJUPWF7E5r0JLRtfwZMn4PBmBqNxSVmnniiR0wYvsJWL8AIm1IEmIfr3op3TxUSLCG4GDgvn3utZKtw2er43PScJqf/3ITdg4627kuf6XNWY0KH2SeforGwMPi5sLwaKxQBllyqCo8Aw3AecImqFSHBGmE2/eSHMNYFr0l7Qx7blGzlKFsmnnAx8LmsQdvrfBYLfyT3ls+bvQn37GFx166Wnob9K2z1AowuVYoAI24p+XY2ePdUo5hQgiVGGWtqx4C5tQjBkGxlKVsJBh2NFR0G9FzsORZWU7gc3KWl3oOOZt0wol6AJT12pY8Aw3AL2GNUw0iwxKji1X2XYji3vTKUbA29bHV9wwyeJqdvTNiyJRMwsrvpeG0MOF5L1uxTT9GYn/e+rwgw1nYUAZbuZzkXuFSVjARLjCCbfupDGG/q923A+m6nkGwNhWzFignpEqfu49Bryp2A6XNaosGumNBZiwmb8xYqAowmVYoAI24pH8leD2y3Y3D5pxUTSrDEyGGNPRa4ZbBTSLaqKVtJYsKox4Pu/w+KCTteG8fBXV5m5skYvQkLbXEJI1WKAAcaW3UjwDAbvtmscGzhtwohwRKFcBlwTjSnkGwNjWx1fSMgJgx6jqr5Qdfr5tyEhI8Jm70Jn3raiwmTCp8iwJJL1dBEgGGO3Tn+PVZIsMSosOmnPoTjuADbgXXxnaJ42UpFdIZdtpLEhLGK4NA9gnuLxnXEhKZWY2nvXhZ3vRTcmzD6CZFjRaoIMLJUDUcEGObYrQO2G+tw+WcUE0qwxMjgus7xwM1p1OVFypbtKVtFelLJW7YGxYQmgagGzkXoj+Ae+AyXJ1nu8nL0QUcVAabd4pK+dQx3BBiGm61xj1eNI8ESo8VlwFlp1+Xlka0UyjAUsmX6y1bXt00fcRoQE3YtYrqPgQkatsETsLmnn6IxN9df8BQBllyqRioCDMPZwOWqbiRYYgTY9FMfgsYcxIkHJVvVlS0zQLbMIEGLur3OB97piAlbpcuPCfftZ+Gll/oPOpp764QiwMhSNToRYJiFp8Buf3rD3YoJJVhiJKhtOIGk8aBkq0Ky1as3oSF0jBhb5Ahoyer8juPFhEsrzD75BNbNvsIOJ1WKAAdahyLAMAvfdOrcbSfkU3ghwRIFYgBzBZgzi9m0ZKt0stVRBhMUI6YWE9I9YKlpjonlMPf0015MmMexUAQYf+WKAKMsfCZwheoeCZYYYjb91N/geL/4dmCq8MjKFCEYOchWehaag1sNGr2dBK1Zg2LCljeNg3H8mHDnzvi9CcvSLKIIMP6WqhUBhvniFJYdZnGFyz+9RxWRBEsMK67LicBNxbai9NvsEMhWaruQ5rGIMeio6RMhDtxUlJgQ1noTrniDjrpuDlKlCHCgOCgCjL9w+1dvtJPjJ6FRRyVYYqi5EjijsFYUyVY5ZavrG72EzGmbsHlNjtKICc1qTFgf1JswcgODIsBIK1cEGH/h4K+e4d97hQRLDBubfupvMNYYYAcwWUzFLtkqXLZSGXS0xyCigWljUEzYMlVOUEx4YD8LO1+MFxMqAkwuVYoAoy88eJ8mge24xlz+v/eqQpJgiWHDGnsScGM5WlEkW/nLVtyYMEIZVlujWrdnAtbVOya0y3W/N6Eb54dBEWAEcVAEGH/h6Nu5EceepJRQgiWGk6uA0zOynoJlK2dZHUbZ6vrGgEFHTac8BT+zZTrjRIIiRtpjwmeeoT43G27Q0RxMQRFgLH0bpQgwDKf792AhwRLDwqY3/g3WGINhB4aJHKynANnSJNShV9T5lklPygLLYDpatjpatwJjwv0HWHgxICZUBJhcqhQBRl84nX2aAHa4xpjLPqOYUIIlhgaDPRm4IXsfkmyVV7ZCSlIqcxOagN+iZWqcwCiRVcmyK3Vmn/BjQkWA8cVBEWD8hVM+dv6qXmWsPVljjkqwxHBxNXBavj4k2SqXbJnIshUvJuyxHtNbtozpjglnn3mG+syMv5wiwEgrVwQYf+H0pap1dacB16g6kmCJIWDTGz8MOA6YHTAgHpRsjY5smY6VZBYTdi7Wa1ysVuHyYsLlgwf9mDCbH0QRYMwtKQKMvyrLOJYdWJzL1JtQgiWGAfsy4IZINbNka4hly/RZSVCPP1KKCekvVy3PYeE42HqdmScfT3XQUUWACXZBEWB8nWv/8AbgZaqXJFhiOLgGODV2zSzZGiHZ6l5R+jFh6/dbX7aswzjg1Jh79tmWmDD+QVYEGFMUFAHG33LvD1+JYkIJlqg2G3/6w1iDgze46HgqNbNka3hkK1RvwqAVZRUTtr7XjAkPMf/iC9EHHVUEGH9LigCzkKpWxoEdBmqKCSVYoqIYC8ZyCnB9JpIj2aqwbMXtTRhjqIaWY2lCydXas1i23og06KgiwAS7oAgwvs5F3871Fk5RLSXBEtXmWrwm6WwlR7I11LJlunofdj43BaEfmO8zfU57TOgPOvrsc6xMT/eOCRUBxhcFRYDxt5zs2L3SvzcLCZaoGl7vQWp48eBYrpKTi2zlzKjIVuTehBHL0DMmDBI0PyY8dIiFzphQEWD8LSkCLEqqWhnz782KCSVYoqK8nEjxYJVkqzjJKZtsxT8eptuTur4SpTehIbBHYtiY0HSsvyUmnHniCWyjoQgwyS4oAoyvc9kcu+v8e7SQYIkKksMFLNkqWrZsT9mKuiOtu2C6VmGCHoAPNTdhP3Fr2S59YsLnnmO5X0xYGalSBJh44WpEgGF4hX+PFhIsURU2v/HDmLUm6LH8tizZKpdshSyD6SU/ZDCCvIkVE64cPsTCCzF6E+ZcYYeSKkWA0ReuXgQYpiA1b9BRM3bZvykmlGCJSmAxWEzBfx1JtqohWxF6E7a2bkU6ENDewuXEiAnd1Ziw+BaXCOKgCDD+wtWPAMPs03VgX6FaS4IlqsV1YE4pTDAkW0MgWyZgV0xHg9SgmLDPQTFBLVu9Y8L5559bqM/PzceOCRUBll+qUj52pWit6r+dU8Bej5BgifKz6af/FsxaD5VSCEZS2SqyDFltusByBMpWkqlxYj5f3966FTAJtVmbOscbdHTf50zNuSvyeAyKAFOyuQwXHs4IMESTmfV7etuxy/5tjyowCZaoAK/E9BtjpWKyNfRjbBUtW2bwM1thBazvsA+dvQnpkLuOSZ/buzhad2Hu38Y2bPpnoBFyxxQBpt/ikt7CoxEBhilIwFRmQoIlysoNwCnh6mzJlmQrmmyF6k1oTIjdMH2nzzGtkz9jdtql+S84k1NfAp4vTqoUASZeeLQiwDBfiDjbhpBgidzZ9NN/i/Xnuer6bSspW0X60AjKlumoEozBBo5rldJPajo+6Dt9jv1a4+DTT41tnHwe+HI+rROKAFNbeHQjwLD18A4w44oJJViipPiX8qkWrrGJ3aEMsqWpevKTLTO4Qut6KD3s6O0dwmTW3jNt32kpR3tvQte69TunLnnj0tLu/Q3gDiwNRYBZtbiktLAiwChcA/Y01WISLFFubgBODn1/k2xJtgbKlgmoPgJGbe/Vm7DvPvUfF8tgwNoX7MrCF9yDz3rfsXwZeDbTmlMRYPyFhy0CDG13iQpysn/vFhIsUTY2/vTfAkwQFA9KtkZEtrJwqxAtW0nL0Hyova3VqkXUrPvVxoEnn2pMv4g1YI15DvhSZlKlCDD6wsMcAdpcdtjxBh1l4rL/pZhQgiXKyGnA1ancNiVbFZStpGWIMOhox3/3Hmerc2T2DokyrY/MBzwgDw3c+p2TZ9y+svT9f+GBHUdjrPViQqgnFgdFgPEXVgSY9g5f5d/DhQRLlIbX39F89Sr8eDDVW6lkS7IVujehWeuN2PkQ+6BtBY6NZZ+39YUvubMvdS70FeCZ2DWnIsD44qAIMKvf6WTgRoDr75hRvSbBEmVg4/huwJkEsyNwll7JlmQrShkixITRzqs+PRIDx8sCXPcr9b2PPtM4/GJbAa01zzMwJlQEmJqV5eYYDGsEGGZVBtgOTC4sLqhik2CJcmABezpeE3Piil2yNcqyFT8mHFQIa1rG2TLtvRFN4GCk1K1t3DF5xq0ri9/95OqavvkjR2GMdfFiwpW+NbQiwFJI1cDDU7oxqwqT36ssnG4REixROBM/+ZHmyxuBE9Ou2CVbkq1+8tUrJgyQpT7nVfB8hFj7nF1Z/LI7t6/X3nwVeDrwTFUEGL+2VwRYyO/kL3aify/n4k/vVgUnwRKFClYNLEziNS1nag2SrVGRLZNqTBi67jPGvyX5ZbD2y/WXvvtcY/rFwLJbx7wA9ouKAFOo7RUBFilVrYsavJ7gk06j6AGfhQRLYOBM4Mo8K/ZsZKvgoyjZCpatwO/HiwnbWqhMcC9DL0Y0dWsbd0yctb2++ODHu9b0zR1HYxquFxNalhUBFitVAw+PIsAoi16Bd08XEixRFEf8zMeaL2+iZzxYJdmq2LyIIylb6cWEfbePfcbWl77iLh4adPJ9jdWYMIN6UxFg/GIrAoy76IlYbgK4+F/2qqKTYIkiaNgGYKbw4sFSVOySrSGSrS63ChrbKu1tNuNB94uNF77xvJ3eOaiILwJfSLXeVASYbFWKAOMvuvbl7VimHKPH3SVYoiAsYM8CLi+FYEi2cpatrPe13z4F7KAx4co9OCZcsda9Y+zsVzcWHvhoz7V980ePwXqn1x3AcuLzc9giwJT3SRFgRosG79MVwFmq4yRYogDW/8yHm/XVTRhOKJ1gSLZyKHJexyIoAmzftOkqS1BMGHZr9ikaK1+zS6EHW/w68GSsym+YI8BhnLam0B1OcdHBXz4euBngsn9Vb0IJlsj5h6sBZh3NeDB375BsDb9shehN2DaPINGftwo8QewXV564+4VB8eDa+eTsBD4f+pxTBJhsVYoA4y8abTvbgXUW9SaUYIkiOBvM5d2jYku2JFsFHYu2SZuDHo4fFBOybK17x+QFb3QXvvGhgZv75o8eg8FtxoRLfc8t9QKMX/crAoy/aPxjd5l3jxcSLJEbG37275ovbwaO61up5l7PSraGU7bCDDoaJFstMhXmoXhrn8Stf82uzEUt4DeAJ0C9AFMrtiLA+IumU+Tj/Hs8l/yLYkIJlsin2rYWYD09ew8GPYA85LJVxtacpLJVit8jZEzYc7yszk0PGPbB2i8sPPgPO93DL0Y6W9aNrbxk4XOKAFNYlSLA+Iumf+y2A+uNUUwowRJ5cg5waaxKdRhlqzKjx0coR1WHfehXGTQlq7Vla7V1yyxZ696x/qpfswtf+8vQm/vmjx7L/Mo4WO7EslisGKS8sCLAQuQ3pwgwDJf693ohwRJZs/FnPtJ8eQtwbOJKtVDZyqh6kmxlJFtm4H8HBoetvQl7btYAPEGj/g27shB3R74JPF4+qYpYZasXYCG/UwERYBiOxdpbsJbLNOioBEvkUSGzAdiWeqVaoYfjJVt5ylbYmDDpae1+fu6u//qSO/1irBXU1u3ZBXwuPzFIsRZWBFh+qcr12Nm1f969foPFVfUnwRI5cC6h4kHJVvVlK9PDlk4ZAhcdEBN29yZctNa9Y+Nr/9gufPWDkTf3wKuPprFwHHi9CRcS7bYiwGrY3XBEgL2kqpVL/Xu+kGCJrNj4M6ujWt8CHJ2b6Ei2SiBaJeiJGPgwe8KYcK1yeZxG/Zt2ZT5pYb8FPJavVEWsshUBFiK/JY0Ae0lVK0cDtwJc+s+7VBFKsESWnkXieFCyJdmKs+2OFacZE1p7/9wd79jlzu5JWEyzG7g/j1YQRYAoAkwqVTb0xrYBG1FvQgmWyJTzgEtKUblXVLaSb0ItW90rDpq70PRerm0+Qxaw7l0bX/snLHzxT2OX5oFXH9OssO6kX0yoCLAadjc6EWAYLvbv/UKCJdJm409/tFkh3QrmqGJLU23ZSm9A0xGUrcCpcLpbt/rHhF2/yKPWrT9g6wtpHZBvAY+kW4kqAlQEmFCsknEUcBvAJf+6ByHBEqnWoQZgE6vxYIl7vkm2hlS2QrRSDRpINPhXuH/Tf/qd3XZxOq0KbS9wX/IGFUWAigATSpVNdWO3A5uMtQgJlkif84GLylmxS7ZGS7ai/GHQY05C7+U8rr1r9kN/xvx970y8uQdefYy3bstdWGI8Ma8IUBFgqaSqlYv8OkBIsERatPQevA04spiaUrIl2Wr5PFFvwrZPHrFu/Vu2nvoA7N8GHs6kylYEmKHApbRo9SLAMPt0JNaLCS/9J81NKMES6bUCGDZjuD0vwcimci+yaJKtdGQrbEwYcsWW+8bPvH0vKwtp7+I+mjFhGrWwIsDyS1Wux87mI1bdB+B2LJtRZ0IJlkiVrcCF8evnElfskq3qyZYJv/Y+wjUH7l31Z7/M3F3/v9T26IHXHNP8ge70tpGgylYEmNEOp7jo8ESAYQ7AhcAFqg4lWCIFNv5sWzy4JZ36WbJVXtmifL9Jz6+a9g6EA2ND/72mcFkexm08SH0pqx36DvBQ5CpbEWCGApfSosMZAYbZpy3AbQa45J806KgES6RQ6XEEDIgHJVtDIltVmBfR9JctCBkT2nudY8/eZ1cWMyi/xeDuB3uvIsAhkapcj11hEWCYr9/uwhEadFSCJdLhAqI0C0u2JFuFylbAN7org1mse5d78Fnm7vy/Uy/xA685Futt+S5gNo8KWxFgRouOVgQYZvcvwIsKhQRLxGXTz/x987K6Ha8VK0dPkGxJtgaUw9BbuFa/FvQ9A/AQbuM7NJazLvB3gB9mVWErAsxo0dGNAMN8dbNfJ3Dxv2jQUQmWiHc9GgBnC5jbivUEyZZkq18ZmlLVpzdhd5HvMUe94gDL8xkW0YDLQeAeRYAVkKpcj12pI8Aw3AZs0aCjEiyRDL/XSMqVqmRLspWZbAWOgLUmXIYZsHfbmd3MZhAPNnng1cd4G7bcDcykVVcW2uKiCLD8UhXxAMTc/a0EDjotJFhiIBt+9u+bQzVuw5siJ7tKNfaqJFsjL1smjGx1fsn+ALf+XdyVvEr5XeD7qfuMIsD4iyoCTDrf+CYst2PhEg06KsES0estiz0SuDU3yUm0qhI/jJ170UZFtszgt0xAjGi5h03HHrRL85n/EtYYjLWHgHtS+w0UAcZfVBFgmvONh5jZQ0iwRC8uxmsKzsOQUlqVpuopTLYK/U1MiG8YgGmwd7Mwzdwdv5f50f/Wa47BetHk3d62Y1Z+igDjL6oIMGlrVa+Fz/frCCHBEmHZ8DN/j3EsePHgxrwrdslWRWWrqNHjTZg3V//7+1j3e7j1vE+C7wPfi3RcFQHGX1QRYFZS1cpGYJs1mptQgiXC11cGrGuOYmA8KNmqvmxldP/NTbYizk1oucdZd+ThTHsPBnMYPyZUBJjhoooA04wAw3CrsRytvoQSLBGNS4DzytSKItnKqQzDJFsdkmOwd9ulWWb//Xdy+5Uf+LFjm8fobguHCm1xUQRYfqmKeAByaq3qxXl+XSEkWGIQG3/275svtwEbyly5S7YkW/3dquvN7+E2vo/bKOpH/gGtMaEiwPiLKgIsUqpaV7YB7DZjreYmlGCJkBxDavGgZEuylbVshYwJLXebiY3Ttr5YzE9qmQbuVgSYYFFFgHlHgGFWdos1HKNqU4IlBl02xmCNuRQ4t1SCIdmSbMWVLY+DwD22scTsZ34791/xW685tnkw7vHLUlCFrQiwcKmKeABK1FrVa2XnYrlUtacES/Rhw899DH/qg23WmPW+bJVPMCRblZet5JvocSx6C9d3se4PsG7Rl9kP8QYezbHCVgQYSqzykqpqRYD9V+Z9tB7YDnDJpxQTSrBE78vJmGOBWzreQ7Il2UrzWKQ3oGmfL7X1HrR3M7FupoDeg52yNwPclU+FrQhwoFQpAoy+suB9uhnLsapBJViiP5cB5/QRsJLJVpGeINkqj2yZfl86ANxDY5mZAuLBJt967epjKvf6ZcpQqlIUq6wXVQRY/taqwds5x687hARLdLL+Zz+GU3PBa+pdF+pyLIVsaRJqyVanZ3XJ1nesdR+ytjSj9TwEfCe9ClsRYCixykuqhi8CDMM6YLt1FRNKsER3fWXAbTjHATfHukwlW5KtwmWrZ2/Cu8zYulm7slj4dWa9vZklTEyoXoDJpUoRYPSVxT8fbjYOx6s2lWCJYC4Hzkp86Uq2SixbRRatENnaD+Ze3Dpz//v/W/gF9u3XHtd8ea9Xtqg7ql6AhUtVxAMwJBFgGM726xAhwRJNNvzcx5hcHoMI8aBkq6qyZYZfttoTwm+DfTifZpNIPAx8O1yFrQgwlFjlJVWjGQGGYQrY/ti+r3LJpzQ3oQRLrLI0UT+BmPGgZEuyVR7Z6lrHXdTG5tzGQnkuNq/Ac1juUi/AhFKlCDD6yrKV35vOOuaaE0r4B40ESxTKFcCZudUxki3JVvaytRfLfViXuX/9z6W50L71utXe7PcBezOr/RQB5nLsRigCDMOZWK6QX0mwBLD+5z/G0pQDXjw4Vcgf9JItyVbasmXAwrct9pES9R7s5BHg24oAQ4pVXlKlCDBJMaaAHWMWLv2kehNKsEYcYw2Ti/ZEMDeV4WFsyZZkK/mxWP3OnTi1eWtXSnr12Xmwd1ZGqnKtsBUBxl5Z8ZOI31g3nKRGLAmW8LgSOKNcFbtkS7KV6FjswXA/WOb+6ddLd8G1xIT3A3vyrrAVAaIIMLtinGHhSgmWBGuk2fBz/4DxaqkdwGR5K3aGb6oeyVbGv4l5AHi0Apfho8ADeVTYigBRBJiP200C27GuufiTL6milWCNLhZOAm6sSsU+lPMikmRVkq0eG7wTnIUG9RJffQZggUGDjiassBUBoggww2L04EaMc1Lx4/9JsESxXAWcXsWKXZNQp2Zp+clWPuwC8zmAhU+8rbQXXkdMuDvNCruUrVWKAOOvrFwRYJhinO7XLUKCNXps+Ll/AGOa8eBEaQRDspXCqkZ+qp4HgMcqdDk+BnwzaUWqCBBFgOVxuwlghzWYi9WbUII1chgAezKGG9Kt8CRbkq3CZetOYNFx6+W/Dq0FyyKWOxUBZi87igCjFyMBrzKWk1XZSrBGlauB07Kr8CRbkq3cZesl4HMA0596a+kvwG/9+OrcuJ/zy56+VygCVARYRDEsp2G5RoOOSrBGig0//w8Y79j3jgclW5KtasrWN4DHK3hZPk4zJqySVLWKVYFiUEmpguGTqvZ9Ggd2WGudiz+hmFCCNTIYLOZlwA3F1MWSLclWJrJl8eLBpWVboVtLzQVYAu4IqucUAaIIMMNiZPw7XW+MeZnqXAnWqHENmFMjV6qSLclWeWXrJeDzAMuffFNlLsRv/dgJzZef9/dBEaAiwPIXI9zKTvXqGiHBGgE2/Pw/No/7Drwm3PiVqmRLslUu2fo68ESFL88nLXxdEeCQSBUMewQY5svjYHdYbO3iT2jQUQnWaHAKcH2qlWpmslUckq1KyZbFcAeG5dnFjZW7IF8xNontExPmX2ErAoy9stGKAMN8+XoDigklWCPDtcArM6tUU62LNS+iZCtUOV4EvgDAv/1k5S7If3nNEc2XX/D3Jf8KWxFg/JWNbgQY5kd9JXCdql0J1lCz4ef/EWup4cWDY7lUqpKtHASjyENbGtn6msU8NQRTczwFfF0RoCLAwtwu/ZnAx4AdWGoX/0/FhBKsIcYYXk7PeFCyVU3ZGvlJqF3gDgPLs//zlyp7bX77x48DyzKWO/x9yl6qFAFGX5kiwDhbvw54uaYmlGANO96JXnTlLtmSbKXHi8AXh+ga7Y4JqyRVEWt/tVaFL0ZJI8Awi74CuE6DjkqwhpKNP/+PGIzXVBs5HpRsSbZKLVtfBZ4eosv1aX+f0hWrAsWg8lJlizt2FYgAwyy6+miKYkIJ1tDhnef2FXgPuJe3cpdsSbai4eL1vFupcjzY5Ns/cRzAir9P8WNCRYDxV6YIkIxmHL8OeIVqYwnWsJJyPCjZkmwVLlvPM1zxYJMv+ftWPqmKWPsrAgxfjApHgGEW7TM8kJBgVZQNP/9xwIyB2QGmVmxpJFuSrVQX/ArwzBBetuFjQkWAyaVKEWAev5NiQgnW0PJKVuPBEg8aKdmSbIVfsIEXpdWHIR5s4seEdX/fGn2lShFg9JUpAsxTqjq5Bm/6HCHBGhK8uuoGDKd011llk60inUCyVTHZeg748hBfue0xoSLAZCtTBEjGEWAYFBNKsIaHDb/wcfDmHNyxerx71lllEIwEZRiyeRFbZQvJVtCCXwH77BD/YfQs8OWhiwBTrbAVAWb2S2Vz7Lx5cA3jigklWMNC7xnNh1G2hnES6lbZKrjWL4ls1cHcAc5QxYNNvv0Tx4Fr61jbOyYsoBUkFalKVawKlKqQxcj/dyqdVHVyDZbTVC1LsIaFG4CT41d2kq1SydYwzotI5FUNezzY5MtA+q10igAzKYYiwFDbORnLDRp0VIJVaTb8wsexMEFrPJi47pRsSbYyPhbhVvUla+1zuURnRf22gDU8h/csVq4VtnoBFiRVkWWn9K1VXdux4FjYYWHioo8rJpRgVRgDpwFXZ1PhSbYkW4XIVh24wxjTmP3ELw3ttfvg64/HWBrAnf4+Z16Jqhdg9GLkLb+VkCq6pKpzs1eBYkIJVkWZ/PW7my9fRZh4ULIl2aqObD2DN/7VqPBloo71pQgwk2IoAgy/TwN272TgRoAddygrlGBVjLGZfbAWD2ZTy0q2JFvFHIsvGYfnCx9ZJL/D9gJhYkL1Aiy/VEU+dpWMAMNs0gDbgcmXDu5ShS3Bqt5dGcwZYK4qtu6UbEm2Uj0WK8Ad1uLOfvxNQ38Vf/v1x4NdHVB1JWklql6A0YuRtcBVUqpgUAQYhquA01VXS7AqxdTPf6T58kbgxNwr9oGyVcGKXbJVlt8k/BQyw8VX/X2PXPsrAgxfDEWA4fcphWN1ol9Hcck/qhVLglURamYKYBKvCdYUWrEHbk5T9Ui2Yh+LL2LNC6N3pzQvYPmiIsCSS1XkYze0EWDYi30HMOkaPYclwaoWZwJXlqpil2xFWGFxlFi2loE7MHYk4sEm33798dCwLl5MuJyZFykCzMwjKydVkEYEGIYrsJypMbEkWJVg489/vPnyJrwm2HK2oki2yvV7VEO2ngK+NsKX99dojQnTqHMVAeYkVQkPQDUjwDDbOdGvq7jkExoTS4JVclxjsDBlYXv8i0OyJdkqpWx9wcV50Y5M98GuSulF4AupiIIiwOTbytpgqx8BDjh2qxveDnbKbagZS4JVDc4CLk/nXirZkmyVQraWgTsdrJ37+C+O3AX97TccjzVYC3fYATFhPhW2IsBKSxXkFQEGrLxrS1f4dZaQYJWX9W/6x+bLm4AT0r92JVuSrcJk6wng67rK+TrwZLFSpQgw9QMwvBFgmIN5PHAzwMWaOkeCVVqsA4Z1GLYPqnclW5KtisnWFxxb28moxoNr7AQ+n1+FXf4IMHU/UQSY0rGLtIPbgXXWKiaUYJWbs2mJB8PUu5ItyVbJZWsJuMM1DTv78V8Y2Qv7wTcc37xc7/CPSYYVdnUiwPxbqxQB9t+nWFu6zK+7hASrfKz/hU80K9ebgePi1ruSLclWCWXrCeAbuspX+YZ/TBQB5iZVCQ/AaEeAYTgOPya85H++qCtcglUyDIBZD2wPVanmKltF+oxkawhk63PuxNJLaDBCAGpjvITlc4oAE24rGwsr/NiVNAIMw3YM611rdJFLsErJOcClkSvVzGWrgIpdsjUssrUI3OksTzL7j28a+Qv8wTccT8ObkfBO/9ikbxmKAFEE2G+fMtqS5VJczsFVRS7BKhHr1noP3gIcm6hSDVHnSrayKFyRh7HUsvU48E1d5V180z826dX+igBRBDhIqmx22/LqrlsALvkH9SaUYJUEYx3AbgC2pVaphqxzKytbpROMBGUYsnkRO2Tr/tnjt2gm2I6faHnX/C7gc6lJlSLAHAQunWNX4QgwzLHbBmxwNXeOBKtUd1zMucAlmVSqwyhbZghla/gmoV4A7tyw5zCzIzi4aC8efMPxTJywHryYcCGyZSgCRBFgv33KXapauRQ4V1e5BKsUrFvtPcgtwDGZV6qSLclWfjwGPKCrvCcP+Mco3FWnCBBFgIOkKtMIMAxHA7cCXPgP6k0owSoY/3GVjUSKByVbkq1KyNb9ddfuUZ+iYNzG0m6w9ysCzOjuowgwR/ltYxuw0WhQYQlWSTiP2PGgZEuyVUrZmgfuHHMMs//4C7rCO3jwJ4/HqU1AUEyoCBBFgP32qZRS1crFfp0mJFjFsfFNn2qezbcCR5WmcpdsSbaS8yjwLV3lA/kW8Ej2TR/hLlxFgOH3aUQjwDAc5ddpXPQPO3WFS7CKwbUWcDaRSTwYtVJNVudKtiRbHdxnjN2rzkQDrpsGe7HcpwhQEWD3yksbAYZhm4VNuvwlWEVzPpiLKlGxS7YkW+GYB+601jD3ccWDvXjwJ0/AeHfQu/xjlmvrhCLA8MdOEWDEzVguwnK+/sCSYBXC+jd9svnyNuDIylXski3JVm8eAh7UVR6abwMP51GRKgIMv0+KACNLFXZtW0f6dRsX/b16E0qwiqkzNwO3l0YwJFsRZIty/ybFytZ9YPehXkQhD6Pd5x2z7GRHEWD47SgCjLCZdqnq5HZgc8wJ4oUEKzFbMVwYrh6SbJVLtjQvYo8VzgF3gWHuH39eV/gAHvypE8CbHPdOYC5N2VEEGP7YKQKMuJmmWPXnQmCrrnIJVq6se9Pq4KK3AVuiV3iSLclWaWXrh2AeVOtVZL6DF60mqkgVAYbfJ0WAMaUq/La2ALeD5aKPaW5CCVZu1aABOIJe8aBkS7JVXdm618ABPdsasfaC/cC9cS8MRYDht6MIMMJmoktVJ7eDOcLqaXcJVs5c4P9LscIbTtnKVTAkW0kWmwXutsC84sHQPPjGE5ov7/KPYaiLQBFgeNlRBBhxM+EiwLD13IW6yiVYubD+TZ9qMXuOyK7CGx7ZSn5fkWzlJFs/wIu6RDy+A/xQEWA6+6QIMKZUpbut1Y5cF35MvQklWLncAdiC34U1n3pSsiXZykW27sXYg/5D2yLSbcGAtQex3JN5HasIMMVjN/IRYJiduA3sFl3kEqy8uJAw8aBkS7JVHdmaBu7CGuY+/nO6wiPy4BuPbx77u4GZ1OtYRYApHruMtlbNCDCM7W7FG3hUSLCyY/0v/pN/DzXbwGzKpFKNJVslr9glW1WQrR9g+J46Dyaumr5r4QeKAAfvkyLAmFKV6QELPFSbaMaEGnRUgpVdvWXBmiPxJ8LMvFINveoKVeySrbLK1j3AIV3kiTmE14qVU4WtCLD/sVMEmNIP0zFjiZBgZcPF9Bx8TbJVPtnqtbY8/3W+ZQv617MMh7DunVjL3D+o92BcvvPGEzCOg6k5d2HModin5jBI1cBGkSxlRxFgZKkavK3z/bpPRKwFRQjWvelTON55+E7gd6Kf1BldK0WXIYtC26QnrgUM1hnDjo3j1sbBqZVol8v0MIPFOrUXVzYd+0e2Nj5d7nuCXfuzvvVPfFprI9te0ba93/nagrWm7bOg77guWNd/z13777Z/FmwDVpbsxNTY5tOvveK3JjdtPLlvLWkzveCLOeVsTpvM85qyOR02W/of5l0GftcFvv+LJ0sKQjCmQxDeRC0cRVs8GMdjbbqFCr1ak+8dI0k5zOBi2j6y5U5soL7+CBqTG7C1cazj6G+J/pwM/HFlrsKBZ0UfWWoTKdtxMvX6vl2TK2sBt+W95r81CVueneHgc89zwvnnFvuHUQFSNTRildOxs7ZSP8ytFo423qC6IgSKCKNxCXBe8koigwivcj0RQ5Qj4oCmbm2c5S0nsnjMy1nZeAzu+DqsU5NcjdSfQa3/GfC7N98zLSdW5NjddH/U/A/HARxmdu+hsbzcfZIqAkxhnxQBht6JdPfpPL8OFBKs9Fj/pk81b8zbgA0FWZFkq8/H7sQ6lo4+hZWNR2OdsRxrGZH/qWK6Tw5jQixjEpyapmNbHf9M858DtRqLM7MsHDrsTaulXoDllaqcjl3BvQDTYgOwDWO58O/Um1CCler5a48hVjwo2cpattzxKZaPPBl3YoPO0+G3qwGy1UPAom7DmA6Z8tdrgqSrZRvGAVOjsdJgZvfeEHWcegH2lx31AizHD7PKLbjmGN2HJFhpcwlwbikEQ7K1doupjbGy5UTc8XWoxUrEiwlbhSrMedgpXc3l/PcdBxyH2b1722PCKklVbo0iKAJMQ6ryOx/OBS7VfUaClQrr3/RPYFwwbMewvjjBKNLhyitb9Y1H0ZjcILkaOY8qeUzo1FiY9mNCY5K3xigCTEUUc5GqrCPAgs6HZpWI96iMYkIJVlp/ENeOBXPL6l+4hbhGGcbYKpdsuWOT1Ndr7LsRvSj7yBYFxoRmNSZ06w1mdu/GKgLsIwaKACP/MDmfDwHcAhyr+5AEKy0uA87pEgzJVoGyZWlMbcbWxnV2iogCZjKMCf3v+THhzN59NJaWyidVoAgwyWaGNwIMwzl+nSgkWPFZ/0ufAjsGsB1Y1/eGK9nK9wAYB3dyAxqCYZQ9Km5MmOR6iBITjrE4M9cREyau3FKrvxUBxpSq4Y4Aw7AO2G6NUUwowUpoGKZ+HHBzJMGQbGV+AKwzhjs2gZ69GuFrc5A4JYkJTYdEBcaEZk26jGk/943j/RFQbzC9ew82qLlDEWDeYhB9M6MZAYbhZmPt8boPSbCScjlwVmwbkWxlUA7rDSBa5PQ3osTuZUgcE4Y+n037Nrpiwhqze/dTb/YmVARYfqli5CPAMJzl141CghWd9b/0KVaWToCe8aBkq1DZMg7WKB6UTMVopco1JqyxODvLwsFD3qCjeVWiigDjS5UiwDCrXWdh+9TffoEL/n6n7kMSrOh30vHJXScQKh6UbOUuW9ZirOLBUb9GB4pTKWJC1xt01GY4b54iwLi3EUWA8Vd708KbX3UCru7DEqx4XAGcmbnoSLYilsNgbMOfXFcIeohVGWJCL8qe2buP+tJyZrKjCDDiZhQBxv9J1t48068jhQQrPOt/6Z9ojFnw4sGpXEVHshXqy6ZRx6kvo16Eogox4dLsHAuHDg3uTRihxlMEGHEzigDj/yTB25kCdtTGDBeoN6EEK8rJ5dTNiRZuKqC2WKsgJFu9v2xdnOV51Itw5O1qsDjFjglNCjGh97C723B79yaM2SiSTytIxSNAhrC1Ks8GxMHbubFRtyfqNizBimoBV4I5I88W3r5yIdnq+nJtYRrj1nW6ih6nTNKYMMr52CcmNF5MOLtvH/U4g46iCDC2VNmMD9ZwR4BhOAO4SjcbCVYo1v3SP2O92+MOYLL1RirZKpdsOStL1OanddKK4mLCrpatfjHhPPMHB8SEigDjb0YRYPyfJP52JoHt1rrmgo++oPuQBCvUvfMk4FX9LECyVQ7ZGp87gLOyiJ7FGvErdpBsZRUTrq7KdEtXQEw4ExQTKgJMthlFgPFXm2g7q2u80Rhzku5DEqywXIXX9BnKAiRbxcmWqS8zfng3prGss1YEnCAhn8lKPSakR0y4n/riUlflpggwplQpAowvVTa1NZ6OYkIJ1iDW/dI/448GuB2YiGMBpZOtosuRw6prS3NMHHoJ01jRSSyZ6jhhYghYpPOxo2XLDIgJ5+aZP3gw+3uFIsBkO6EIMMrCE8AOMOaCj6o3oQSr3w0TTsYExYMVla3CWrVykq2mZC3OMnFwJ059CcWFo3vx9pWt2AIWISaEPjFhLVlvwkQ1azXEIHAzigDjrzaVCDDUV1+FtSejwZ8lWAO4GjgtHTeQbGUuWy2rrS3NeZK1siDJEn1ki/AxYeTzul9M6LTEhIvpnaKKAMsvVVDlCDDMV08DrtHNRoIVyPo3/zMG4+D1HpxI3w0kW3nIlrMyz8Shnf4YWUIyVcKYcH6B+YMHk81NqAgw2U4oAoy/cPBXx4EdFutc8BH1JpRgBZ4z9mXADdm7wdoKJFtpb9zgrCwweehFaktzOrFHy64Gy1YmMWHLc48hYkLbsMkHHc3aFBQBllaqCooAw3z9eoN5me5DEqxeXAOcmp8bGMlWJrJlMPVlJg7tpLY4o7NaZBsTGugfE7ZOq+OA4zC3/wAri4vhWs+GrLVKEWBKUpVvBBiGU1FMKMHqZN2b/wVwHDA78Jo6C3CDYNkqVHIqLlumscLEoZeoLRzWST7SMpVxTNhcvmdMSHBvwgMHe5esCKnKWqwUAcZ3teIjwDCMAzsMTu2Cj6g3oQSr/aw6Bbg+FatIUbaKa9Uqo2zFWNKtM3F4F2Pzh3SKj4ZdDZatMsSEFmb29Bl0NGtTUARYWqkqcQQYhust7ss0R6wEq5NrgVem3Yoi2cqoDJEkq8H44V2MzR1AF/4ou1cRMaEJjgmNw+y+/aws+D1e1Quw3FIFigDD8UrgOt1sJFiAFw8aqOH1HhzL0JQkWwXKlrEuE9N7GJ/Zj8ZqGUWZGtSyRUYxYcu2O2LC5fmFlphQvQAj7YQiwPgLZ3vsxoAd1lLb+rfqTagWLO9cezlwfY6mJNkqQrasy/jsXsZn9oJ1deIPr11Fk62e73V8nkFMOL17NzaLc1ERYGmlquIRYJjtXGfg5RqJUILV5Do8ySrClCRbecqWtYzP7mdieg9GkjWC7hU3JgzrdQNiwlUpc8DUmDtwwIsJTUoXiiLAUh27IYwAwxy7V6CYUII19eZ/wfpNmvSNByVbwyVblrG5A4wf3oVxG7oLDKdJlTMmXP1OMyZcZO7AgWSXhnoBlu7YDXEEGKZYq4/cXDDiMeFIC5Z/G3wF3gPu+bakSLYKl62x+UNMHH4J06jLR4b+Yi9jTOj4vQn3Yt2IramKAEsrVSMQAYbZznV4dasEa8RJEA9GrdyL9DXJVlAZagvTTBzeiWms6EoYWdmi2Jhw/wGWw8aEigCTbzovqRreCDAM/rBHEqyRZN2b/xmwzXiwVlQrimSreNmqLc558xfWlyUfw2VS1YgJFxYjDjqaUR2qCDC+b4xWBBgGxYSMdAuWAzivJJN4ULJVNdmqLfmTRK8sykuG1reSxoQdcWDfmNBEjAn3tMeEigBLK1WKAEOv5hoLp47yoDijK1jePe4GjDmlwCHKJVt9y0GusuUsL3iStbwgGRk52SJETBjh9G17MSAmdGrM7j/I8nzLoKN5SZUiwPhSNdoRYJjijnxMOJKCNfXL/4r1500CnLVKvND5YCRbg3Yih5/HWVli8tBOaktzkpBh+UuqAjHhymIKvQkHVYCKAOP7hiLAOMV1gB1YMz6qg46OpGD5t73gmb8lWyMvW6a+7E0SvTgrPxm6i7+omLBFtFq/40+b04wJXTfdsdkUASZcrSLA+KvxvnAN2FNHdYayUe5FeANwcrg6XbI1arJlGiueZC1MS0qGUqzIOSbs+O/WVi2/FWvuwEFW5ucTt55lGwGCIsCUDKb6EWCYL50MvGpUbzsjJ1jrfvlfASZoxoNR63SGULZSKMcwypZx60wc3sXY/CEJSrXtavB7pYgJlxLFhPlIlc1MdvKUEEWAKbpZ/+04YHdg7MTWDz8vwRoRTgOuTl6fD4lspbIbJZatRJLVYPzwbsbmDgCaJHo4fCtBTGg6egEWHBMqAky4WkWA8VfT9wtta7gKy2mjeKsZLcF61SdXXzEoHpRsDY9sJdwnY10mpvcyPrM/q5pMFCJWRI8Jo56CgbLWLyY8xPKAmFARYEpSpQgwvlTZSAU5GbgR4Pr37pNgDSvrTh+HtXgwXRMKlK1CaxPJVpqyZV3GZ/cxPrMXNEl0Fe1q8Hupx4Qm+qCji0vM7d8fWFpFgAl8QxFg/OKGlirb7+LbDkweOnK0hsAZxYjwDOCqfOrzMrRqSbZSky1rGZ89wMT0Howkq+K+lUdMSPf3BsSE4M1N2IwJFQEmXK0iwPirSSZVnVwFnD5qt5mREazxt/x78+WNwIn51+eSreCVUDHZsozNHWT88G6M25CoVF6syCkm7PFBW0xY82LCgwdZmpvDZjboqCLAVAxGEWAUTvTrXi7+2EsSrGFjzF0GzCSY7f5drUC3kWz1WkFVpuoZmz/ExOFdmEZd0lIduxr8XpYxoRkUExq/N+Fyz5gwtepVEWD8hRUBxr34dmCZrC+Nzj1z1CLCM4ErU26KkWxlIFtVmBextjDNxOGXMI0VuUslfSvMCO8pxoREjAkbSVtIFQGmZkqKANMozBV+HSzBGiY2vOnfmi/7xIOSLclWdNmqLc568xfWlyUslRUrQrZSpRETmu7XbQ/CezHh/MHBvQlD1ZyKAOOLQwWPXYERYJjtnAjcBHDBh0dj6pyRECy3ZgGm8HoP5iMYkq2Rka3a0rwnWSuLkpfy29Xg9zKNCWl/HTQRtFNjZSlqTKgIMLVCVjQCtNl9IU1R3A5M2REZ7maUIsKzgMsLEQzJ1tDLlrOy4EnW8mh1Q66+bxUYEwYN3WAcrxULf9DRvjGhIsDUTEkRYF77dIVfF0uwhoF1v/KvzZc3AScULhiSraGVLae+xOThndSW5iQulRMrShQTemNizR86xPLcXMD2FAGmUtsrAixCFI8Hbga48MPPSrCG4E4KhnUYtpdOMCRbQyZbBlNfYeLwLmqLs5KYMt8TBr2XZkzYOdBo6JhwhdnVmFARYGqFVARYtChuB9a5dvj1Y1QiwrOBy7NzogIlR7JVOtkyDV+yFqblMpXwrRgxoTEdn/WJCQNP7CgxYT3fFhdFgOWXqoG7X1gEGIbL/DpZglVlNrx5NR68GTgubQ/IRC4kW0MhW8atMzG9m7H5QxKYyogV4WPC2KdiwBhYPWPCMRYOHWZpdi6fa1kRYOHHbggiwDAc59fJnP83w92bcKgFy3UMwHoYEA9KtnIsUJGHNF/ZMm6D8ek9jM0dpKinw0QUSRoUE5rkMeGqSDEgJnTAcVhZXmZu/77srl5FgIUfuyGMAMNsZzuW9WbIexMOeURoAHMOmEtD18qSrbwKMxKyZazLxMwexmcPZDWhnEjlhwoTE/ZYJpOY0B8TCyelQUfzkypFgCmtproRYJjtXAqcM+y3laEVrKlfXo0HbwGOjVUrS7YkW6ncWCzjs/sYn90HmiS65GJFvjFhZ2TYOsK74/cmPDzN0uxswrG4UARYgmM3IhFgmCIf69fNXDTEg44OrWAZb8qJDcC2VGplyZZkK7FkHWBiZi9GklWWu0SAWGUVE5rgmLDtdefzWV5MWF9ebulNWI6KVBFgiqsZzggwzLa2ARsa7vC27A+tYPm/7bnAJanXypItyVbMs3Js7iDjh3dj3AaiigJG8HsDY8JeJ2bImHDvXtx6Pexppgiw7FI1cPcrHwGG4VK8OlqCVSUmf+V/NV/eYuGYaOdVTNkqo2BItkopW2MLh5k4vAvjjs6s8uX2qDLFhCYwJlw4fJiluTlMv3IpAiy8ZUcRYKTFjrZwqwXO++vnJFjV+bvTAGykJR6Md75FqJUzH2OrYNlCspWmbNUWZ5g4tAvTWJHgFHy36BarImPCjnL5o7rXl1eY3bcvt4pUEWCKqxndCDDMYtuAjcaYoby7DHMvwvPoEQ8mk60inagMo8cPqWylUI6o51VtaZaJQy/h1JflOZUSMILfyyImbI6J5ceEjXo9s4pUEWDKq1EEGGaxi/26WoJVBabe8r+bL28Fjkr/nCnD81qSrdSPRSq7EV22asvznmStLMplCvWoKsSE0yzNzDZb6LOXKkWA0VejCDDqYkf5dTXn/9XwxYTD14LljTW0iZ69ByVbkq1yyZazssDE4ZdwlhckOoWdM51ilUFMaDpat5rvhY0JV1aY3b8vmzpTEWByZ1IEGG8xa7dh7SaGMCUc1ojwfOCifM8vyVawbBVdcVZDtpyVJSYPv0RtaV6+UwkBI/i9fjFh35MrXEw42xoTpnFPUwQYfzWKAJNI1do/r64+fxjvHEMlWFO/0owHzW1gjizuvJNsaV7E6LJl6stMHH6J2uKsnKaQUyRGTGgSnBCBMWGAaLXGhNMzLM3OEPahYEWAKa9GEWD8xdqlqpUjgdsAtg5ZTDiELVhmM3B7VoIh2ZJspS9ba+eUaawwcXgXtYVpCU/u58QAcRo0nU5oiesXEzI4Jtw3OCZUBJjiahQBJlssWKo6uR3YbIcsJhwuwfJuTluBC/MQDMmWZCudVbS3auHWGZ/ezdj8IXlPqQWM4PeyigmdZm/CfYExoSLAlFczbBFgzPMhhQgwDBcCW4ftrjE0gjX11tXeg7dh2NK/wpNsSbbKLVvGbTA+vZexuYOaJDrXUyDGw+x5xYR+K9bCzDSLMzNgjCLAtFczzBGgzfiQR5eqVrbgJ0/nf+h5CVbp8H7TI1iNB8NWeJItyVYZZcuAdRmf2WtrC9MPg9GDWbn85v1kixRiQhMyJjTd2/AFq7FSZ3bf3hQrbEWAigATLBZfqjq5HThimP6gHLZnsC7w/8Ws8CRbkq2SyZa1s+Mze9+O4fcBSVZVBKxnTDjo5OiULtPeK9dxwDjM7ttHY2VFEWCS1SgCTC5V6crQBQQ+3iPBKpSpt3y6eXp4BpxKhZd+xS7ZkmzFWMUPTaP+dSbW/zHwu8AhiU7WP3HJYkICYsLpGRZnwvcmjHUXUgRYLakqdwQYhs3A7QY476+HIyYckhYsC5gt+F09063wsqnYJVuSrZCruNc45qCZPVAHPgi8HdgrC8ryN+0nWxQfE5oajXqd2X37Qt4/FAEqAkywWLZS1Vm426xlixmSmHCYIsJ0eiFItiRb5ZGtaeAua8G+9zKABtZ8BPgN4EXJUBkFzOQYE+7FXVlJp7ZXBFj4PmUlcCWKAMMUbisJBwmXYKXI1Fs/3Xy5Da+JMac6U7IVvOIi3WboZOsHGL63upp3bQVjLcZ8Evg14GkJT1Y/YdyYMMnvHS0mXJyZZXFmuiMmVASoCDDmnuYlVf0Lt4lmb8K/rP6go9VvwbLgjdpubi2uzpRs5WBwoyhb9wCH2pZ911ZwLdTMZ4G3AA/LhrL4zQaIU5KY0HRIVGBMaHrEhCYgJlQEqAgwwWJ5S9XgTd0GHDkMcxMOS0R4MbA1t8pdsiXZSlSgUBwG7gZY+Mjr2z9591aoA4b7gV8GHpQU5fUTRpwIOigmDH29BMWE/vstvQn7x4Q5t7goAsxd4CoWAYbhfL9Ol2AVidd7EPCaFDcWUrlLtiRb2RyL7/v/gnn3+d4ZYPm6L1lfkf1kIVOdv1vUZaKeFlFiwjEWZ2dYnJ4O7k2oCLBaUjUaEWAYNgLbwHJ+xecmHIYWrKOAW0tRuUu2JFvpHYu7gcO23y/7zguaN8vvAr8C3CsrSvN3GSBOecaEndPmGK8Fq1F3u3sTKgIsXBSzlqqKR4BhuBXM0VW/iwyDYF2C16RYrsq9QNnK7FhItvIqzCG8569Y/MhP9l/kDy8AF4BHgbcCn86pihhh9yogJmwTL/99Pyac2bePxvKyIsByiEHqAjeEEWAYzmMIYsLKCtbUWz/dPHe2ARtKXbmXfvR4yVbJZOt7YH4Qevt/uNV7+B2ewetd+Ama2iVSkKnOkyTqMlHPwbAxYc3rTTg72zsmLFAMYq1GEWD8Pa1OBBiGDcB2WzNs/ctnJVi5Y8EYjgFuycGCcvKHistWvgdrmGXrLmDaRN2mJ1kvAb8JfBhoyJCSngQDxKnQmNCLCt1GI8Kgo/lLiCLAjBerZgQYZju3mLo9xla4O2HVI8JL8JoSq1exD6NsDeOApm0CmUs5DuI/SzX/kZ+IvrQnWfuA3wbeByxLlLI4J8oSE9bA1Jjd78eEVZGqgbKjCDCUVFU3Agxz7M4FLq3ybaKSgjX11k9jvQBkO7C+QAsaUdkq8tCVYfT4TMvxHeCHidbgSdZh4B3Ae4AFGVFSmeo8EaIuE/U8C2rZ6jPo6Oxcsphw2CLAlFeVhYSMeAQY5titB7Y51nJeRQcdrWwLlqlxLIZb8qtrJVuxyyDZisLdwEzie6gnWXPAHwC/D8zKlOL+0APEKXZMaPrHhNAjJuwQLcfBbbjM7NsbscJGrVUFSZUiwMHb8b9yS8OYY6t696ioYBnAXAacU0xdK9mSbGUiWwfw48HFj74+ebk8yVoE3gv8LnBIwpTm7540JoxyPpvuj1bXXwPjMLd//+CYsAipskMiVTFbdhQBRjt2HV87B7hMgpUTU2/9DK7rAmwHsy6wMpNsSbZKJVuheZCk8WCwZK0AHwTeDuyVGcWVqc4fOuoyUc+jjpYtMyAmnJtjYfpw/0FHs64jFQHGL97oRYBhvrYO2O5Sq2RMWMkWLMdxjgNuDlWpSrYkW4XLVugy3AXMmbRvsJ5kNYCPAL8BvChjivpDDpCtPGJC6BMT1nAbLrN792Kb548iwMKkShFgIqnq/NbNDvXjqzi8X1WfwbocOCtypSrZkmyVV7b2AfcBzH/0Delv35MsizGfxBsr62mJUxq/a8hnsjKPCf25CZsxoSLA3Fp2FAFGO3Yhpar1W2f5db4EK0um3vppltgEXu/BdYkqVcmWZKtcsvUg8FCm233XVu+Gbvgs8BbgYRlSEpkqX0y4NDfPwuHDsXsTKgLMsHiKAEOKVRfrsGx//G3Pc/4HqxUTVqwFyzDJzAl0xYMJK1XJlmSreNm6E2PmsbVst9eULLgfb5LoB2VOYX+oAbIVW8D6xYSmZVUhYkLXZXZfS0yY1nWrCDD+YooA439r7aObzvzLU06wploxYRUjwiuAM9Or2YqsayVbki3Ae/D8foCFj74u+6296wIwFixf9yXrKxKoJKdMgpgw8r2qMyZsnVbHjwkPHKA+oDehIsCcpEoRYHypav/4TL/ul2BlwdRbP0PNMeDFg1O5VKiSLclWPifAt4BHcr2g3nlBc7e+C/wK/vAQIqpMFR0TEhATzrHYozehIsAMi6cIMG4EGGYFU8D2Ws3l/ArNTVipFqyGa08EbizEPiRbkq3sfpO7gHkn78vxXVubU0I/CrwV+DRV7KqTn10Nlq1SxISWmZbehIoAM15MEWD8b0Xbn5saDedEW6E7VNUiwitJJR6UbMWXrSLvF0MpW3vw48G5v31d/lfUH25t9jB8Bq934SdoapeIcEpkGBN2jakWJibcz8rykiLArKVKEWB8qYq+T2f4DiDBSpN1b/0sDo4BdgCTxfzlKtnKsgwjLFsP+C1IxeJJ1kvAbwIfxhs3S4SSqTjT6cTYZoSYcHm+R29CRYDxi6cIMMsIMAyTngNYc95fVCMmrIRgWcDFngTmVYX19pJsSbZCrzgSdwILuLXiLzRPsvYBvw28D1iWTRFRpszgZYI+zyAmbOtNqAgw/mKKAON/K/39uRHMSVW5W1QpIrwKr4mwCJuRbEm2svg9dgGfA1j46GvLcZV5knUYeAfwHmBBUhX2Z48bE4b1uqCY0PSMCecO7Ke+tKQIEEWAUY5dgRFgGE73XUCClQbr3vrvGGsMXu/BiUIFQ7Il2Ur3QD0APFa6i86TrDngD4DfB2ZlTz0kqd2AIspWDIHriglbtt3Zm3B+gYXDhzpiQkWAhUtVCY9dSSLAMExg2YGLOe+D5Y8JSy9Y1lisY08GXlUqwZBsSbaSH6g7gEXjlLBbjCdZi8B7gd8DDkms+ohPP9nq+V6QtKUXE9rVmNBFEWAIsSqpKJZDqnKLAMMU41UYTq7CraEqEeHVGE6LXuFJtiRbpZWtl8B8Hgzzf/P6cl51nmStAB8A3o43IKqIJFvkGxOuSpkDpsbcgQNeTFgFMYhZYSsCjHbsSh4BhtnOacA1EqyETP3qZ8Hg4PUenOiq8GLV/IXefSVbOclWZscivWJ/A3i89HcIT7IawEeA3wB2yqI6JKndgCLKVgyB6xcTrn7HjwkXgmLC7GQnTwlRBMgwRoBhtjMObDcW5/wPlDsmLH8LluVlwA3pVXZlaNUKKVtFl6PCshXvfpCbbFm8eHBppVGB0RA8ybK45pPA24CnJViDxClqTNgRB6YSEzpY1zITZW5CRYC571M5pKpUEWAYbrCGl1lT7ttCFSLCa4BTs6nsSi5buRcvp42VfvT4BLIVjp3AFwDqf/eGagjEu7Z68xfW3M8CbwEellWFlS1CxIQRTsuoMeHBA9SXFosXg5gVtiLAaMcu3NdKHQGG4VQqEBOWVrAmf/WzWHAsbLdek2DG3iTZyn1jlZiqJ2I5wn31GxjzBIZq8e6t0DDgjTz/K8CDI25SlYgJl+cXmT90qPegoyVt2VEESH6tVSWX7ADGgR0WUzv3g89JsGJyCn48GPv3l2xJtjKRrdj75MWD1i4v1I+snlO864LmEfsa8MvAVxA9xCnLmNC0t2b1iwmt35vQtYoAi2txKZ9UVUCyB3C9wb7MlHj61BILlgHMtWBeGVRDSbYkWxWdhPpF/HiQv7uRSvKuC8C6AN/Fa8m6V3Y1SLZIOSYMkrUeMaFTY+7gQVYWF7O/dhUBZn7sRiQCDMMrgevKfBsopWBNvvXfsZYaXu/BsUHNAZItyVaFZOtrGJ6qXDzYybsvbE4J/SjwVuDTOVVD5ftDsAox4cIiC4cPJt5smhWpIkAUASbbzhiWHVhq55W0N2E5W7C8+8XLgeujVGiSLclWyWXLxes9uLzw4R+vvlv84dZmD8NngF8DPkFTu0aVMsSErd/xp82xNmJvwoylShEgigDT2c51wMvLejso8zNYIQ+cZEuyVRnZegH44tBJhSdZLwG/CXwYb9ysERcriosJm+taXa/XijV/8CAriwvJWs8UAWZ+7BQBht9dC6+wcF1Zm85LJ1iTv/rv4MWCLfFgslpXsiXZKolsfQ3M01Q+H+wpWfuA3wbeByyPkF0Nfq8MMeGi35swp4pUESCKADM4dh1v+48S2bFzP/CMBCskrwCuTafWTek8lGxJtpLdQ5vx4MrCh183nJ7hSdZh4B3Ae4AFRpEkMaHp6AUYKibseN0zJsTvTeimdlKnspgiwPjfGv4IcMDmLWCv851BghWSFHNVM1C28nEFydaIy9bzDGM8GCxZc8AfAL8PzI6uWBE9Jox6fvf7oC0mrHm9CQ/5vQl7bU8RYOYtO4oAw+9uH6lq/eQUej6vLcFapSMerOVV4yY6j4ZCtoos3sjI1leM9zD48ONJ1iLwXuD3gEMjYFeD30s9JuxoseobExpwaqwsLjJ/6GB7yRQBZi4higDD727w230PgB8TmrFzS9absIwtWK8kcTwo2Uqt4JKtNGhYuMOF+tDGg8GStYLlA8Dbgb2MEqGGbkgaE3aeq+FiwplmTKgIsNxSVUJRzFeqIh2Aa8CeWraRYsooWDfgNfkVLhiSLclWSmV4DvgSo8a7toKhAXwE+A28ORhHTKwI2UqVdUxoVmPC+UMHWVkI35tQEWC0ul4RYPjdDRkBhqGUMWFpBGvybf8BxoxjzA6McYpzDMmWZCv1MnzZl6zRw2vJsozVPgm8DXh6iO1q8Ht5xYSmY9vNEd6dGitLS8x1xoRpNJ4oAlQEGGKfYkSAYbbj+IOOjp/7/mckWD1omSG782Yh2ZJsVVK26sCdQH1xVOLBIMlaacC4+SzwFuDhkdjvImNCesWEtdXehG5Ab0JFgCgCzE2qEh6A7kWv8R1CgtWDG4CT+/+VJtmSbFVKtp7Da8Eabd69FVZcgPvx5i/8zuiIFTnGhKb7dcDchPOHD60OOqoIMFpdrwgw/O6mGAGGWfRk4FUSrA4m3/YfABN4vQedUDchyZZkqxqy9SVr7XN2BGfp6+JdFzSvjq8Bbwa+MoR2Nfi9NGPCzoFGWyd7bosJTVdMOH/wQMTKTRGgIsDB+5RRBBhmUcd3iImyxIRlasE6Dbg68s1MsiXZKq9s1cHcYYzTWPrbEY0HgyTLugDfxWvJuneo9zfrmDDwZAyKCZvLrcWEM/uDY8KeYlUS2amMVJVQFPOVqoQHIN6iV/kuIcEC2PDmTzZfvorAeDCqbCHZkmyVRbaeGc5WmoS8+8LmlNCPAm8FPk3Z+lenLlaUMCY8zMrCfPD2FAHG/5YiQHJorerFakx4/X8t/pZSuGDVJzbBWjyYQi1o2mWrZIIh2Rop2foirn0exYPd/OHWZg/DZ4BfAz5BU7uqb1eD3ys0JnTWYsLW3oSKABUBhtinAiPAsBffDmBy/wnFDzpalojwDLymvfRvdGbIZSv7hSRb8VgB7qBm3MW/fa2EqheeZL0E/CbwYaAxdPsYJyY0puOzNGNCf0wsa7zehI2GIsC431IESM4RYBiuAk4vw6VfqGDVfmX18YsbgRMzr1CHUbaGcV7E3F0wk+PxNPBVGVRoydoH/DbwPmB5OMWK8DFh7NPYBFxAATGh09KbsFdMWCUxiFBhKwIMv7sljADDcKLvFFzwx8WObVyoYI2NLQNMAtvzre0lW5WRrdyLl9rGvgj2RdlTJMk6DLwDeA+wUHG7GvxeWpM+d7ZmtT6L2ismxAHHYWVpmbmDB9K/vBQBVvbYlTwCDLMt4w86OlkfL/ZvNaf4m5A5E8yVhZZBsiXZSvdYLAN3gHEX/0bxYETJmgP+APh9YHZo9i1UTNhjmYExYa/zNkRMiGF2/z5cN4VkVhFgZY9dxSLAMIW/Ajiz6Mu+MMEa//XPNF/68WBJHsaWbEm2kh+Lp/DGehLxJGsReC/we8Ch4RIr8o0JOyPD1ul0/JhwYfowy/MxY0JFgOWXqj67W9EIMMwPfSJwE8CZ73tq9ATLaYwBTOE98V/Cyl2yJdmKfSy+ACgeTCZZK1g+ALwd2FtRuwoQq5xjws7XbeVq9iZcZv5QxJhQEWDmopjVsRuCCDDstrYDU2MFBnVF9yI8C7i8/JW7ZEuyFboMfjyIVTyYULIMDSwfBX4D2Dl8O1mGmNABDLP79nm9CctQkSoCzEmqEh6A8h+7K3zHGC3Bmvq1O5ovbwJOiF6hFXxTlGxJtnqX4QngGzKklCTLwWWi9kngbXg9MyvoURWJCYN6EyoCLL9U9dndIY4Aw3A8cDPAOR8o5tZRiGBZ71pfh9eEl16FKtmSbBUvW593bG1n8cdhSHjnVlhqwJj5LPAW4OGK2VWAWJUoJmwOOrq8wnxrb0JFgEWKQaJjN0IRYBi2A+uMW8z9uMiI8GwMlyevhyRbwccjpfNWshWFJeBO17h28W9+THKUFu/eCnUX4H68+Qu/Mzw7V3BMyFpMOLN/L269oQiwHGKQglQlPADDcewuA84u6urOXbAmf+3fmy9vBo5Lt8KTbIU5FpKtzIr3OIoHs+FdFzTP2K8Bb6ZqczzGiQlNghMzMCYMEK22mHCa5YW57AcdTeVrigBh5CPAMByH5WYsnPv+Z4ZfsPxNrqdXPCjZKkS28jm8Qy9bn6/X3Zc092CGkmVdgO/itWTdWxG7GixOg8bJCi1x/WJC+saE9eWV9AcdVQSY+rFLPQIswT5ltR1rwcJ2i11v3fxvzEVFhOcAl+ZXH0u2Bh2L0ZyEGlKcF3ERuGNszGHxw4oHM+PdFzbvWo8CbwU+nVPVkLOAEfxev5iw70k8ICZ0/N6E+0P0JiyLVA2xGOQaAQ5hS5/3f6sbvtR3juEWrMm33dm8qG8Gji3GkSRbkq2IZQhXvMeAB2RAOfDftzbHynoG+DXgE4Bbfo+K8TB7XjGhaYkJ5+eSDTqaytcUAYIiwEhS1SVWqxwL3AJw9vvy7U2YbwuW95fWBmB7okpVsiXZKp9sfW55xdkl+8kRT7JeAn4T+FugUd7CRmil6rVMaIlLEBOurDB3cH/4LSsCTF3gFAEmkaqeG94GbDA5t3UXERGeC1ySWqUq2ZJsFS9bC8CdE+Mu6j1YiGTtA34LeB/eQK8VpKCY0LR8J2xMqAgwdYFTBBhRrMJJVSuX+u4xnII18avNeJBbgGMyqVQlW5KtYmTrUQwPaOirQiXrMPAO4D3AQnk9qmQxIR0xYa3Gwsw0S3OzvQcdTaWxZEQjQBvmKCgCDJSq3hFgGI4GbgU4+/35zU2Ym2AZb0sb8ZrqIlZoRTqSZEuyNbAM9xtT2yPTKVyy5oA/AH4fmC2hXQ2QLVKICU3ImNB0b8M4YGrUV+p3ytSXAAAOc0lEQVRrMaEiwMykShFgHKlKtOFtwMY8Bx3NOyI8j654MIcKVbIl2cqOeTB3Weuy+CHFg4VLlmERw3uB3wMOVWsH0ogJB10jndIVEBMaLyZs1OvZStUwigEoAkxDrNKTqlYu9h1kuARrcm3uwVuBowqVnKGVLSRbxfwmjwDfkt2UhHduBcsK8AHg7cDe8nlUyWNCp8bi7AzLc8G9CRUBht+WIsAIUpUsAgyznaOw3IqFc/48n5gwpxYsA7CJSPFgjrJVdDnSPBaSrbx/k/ttGSvxUcaLCxvAR4HfAHaWyK4GyBYFxoSmKyaMdv0qAuz9tiLAcFJlsz4ftgGbsPlUkHlGhOcDF+VdsedfF5dQtooux/DK1jxwpwEWP/QaiU3ZJMvgMl77JPA24OlqFDzCRNCpx4T+95ox4YF9uPW6IsAQ+6QIMKJY5SVV3au+yHeR4RCsqV9b7T14K3BkkRX7yMqWGXLZyn6hXjwEPCibKSnv3ArLDaiZzwJvAR4uj0fFjQmTXH7RYsKFmRmW5md7bFcRICgCjCRV2UeAYfbpSOA2gHP+9JnqC5b1Lt6NvmCVpmKXbA2RbBXXqnWfNWafTKbEvHsrNFyA+/HmL/xOCexqsDgliQlNh0QFxoRmTbo6p83xY8JGvd4xN6EiwN5vKwIMJ1W2DOfDLVg2ksOoo3lFhKeBOb/Ug0ZKtiRb0RaaA+4y1ioeLDvvuqB5Jn0NeDPw1dKWNexE0P1iwtDnuWnfRkBMOH/4IK7bQBGgIsBIYkVhEWAYzsdwWh6Xc/aC5V3PF2JaBxct+Qjdki3J1uCFfojiwWpJlrUA38VrybqvHDLVee5FXSbqqR0hJjQ1lubmqC8vtZdNESCKAAOkqhwRYBiOAS6svGCN/frdzZdbASe47irJUAeSLclWtIXuBQ6g4durw7svANcBb2iNtwCfKfb8HiBORceE/tyEKwsL7YOODpkYKAJMU6psFc4Hx3cSzvnTbIdryFSwHGuxMGbhzK5j1FV3lWhcKcmWZKv/QjPAXQCLH3q1xKVK/OF5zWEcngF+DfgE4JaqjCWKCV3XsrK4ODxiAIoA0xArSh0BhuEMC2OJWoSLFiyfKeCEvsdNsiXZqpZs/RDMd9V6VWE8ydqJN07WR/DGzSpIpjpPyKjLRD3fw8aENcCwsrSUq+zkKSGKACNIVXUiwDCcYDw3qbxgrQM2hz6ekq2QKyv4WIy2bN0DHJSlDIVk7QN+C3g/sJL/+TtAnGLHhCaFmNBrxWoMHAurWi07igCTSFUlIsAwbPbdpPKCNQ5MxjpvJFt5WZtkK/zhnQbuBsWDQyRZh/DmLnwPsFiKciWOCaOc3H1iQuNgXdvsIFCN1glFgMnFispHgIOY8t2k8oIV2QIkW5KtLE65lGTrB8D3ZCZDJ1lzwH/z/83lL1OdJ1zUZaKez0EtW8G9CW2SbSkCrMyxG7IIMHUvKatg1UnQ9C7ZkmxlcSwSyNY9GA7JSoZSshbBvAevNetwfufoANnKKiZcXZXplq6W3oSOU6tUy44iwCRSNTQR4CBWfDepvGAtpfUXoWRLspWlbIXgMIoHh1yy7ArY9wNvx3s+q8DLJuQzWanHhK1vG5zxccyg9SkCrEbLzuhEgIOY892k8oK1AOzN5feTbEm2EhyLEPeE7/v/xFBLlmlg+QheD8OdxchUATGhCYoJHcbGJ0rbsqMIMIJUjVYEOIi9vptUV7CsNYw5ZgnMs1lW7pItyVZOsnU3uUVHolDJMsbF1D6BN1bWM9mfgwNkK7aARYgJoUu0jOMwPjlZqpYdRYBJpGpkIsBBPOs4LNmMy52pYK385e3UvSH8Hu6u0HI8fyVbkq3ksnXIwj0WWPxrxYPDL1nnAw1wnc/gjfr+SDGnZIKYMPL5brr8rTY2zsTkpNeJUBFg+Vt2FAGG5SHXhUf/y6nVFawWvgvM5l2xS7YkWykei++B/UGV7ygiIu/cCo4Lhvvw5i/8Tr4yVXRMCBNTU4yNjycfpiFmha0IMIJUKQIMy6zvJJmTl2A9AjxVZMUu2ZJsJTwWd0FtWmO3jxjv2grWAHwV+GXga9mdYwNkK5OY0LSsqiMmNIZ1Gzfi1GrZ7HKkCDChsSgCLL8o5sdT5NQinYtgubAb+FJZKvZqylaRjjTysnUAuAcsi3/9GknHyEnW+c3z7Tu+ZN2X72mfYUxoOu8xa8s4tRobNm8a3IMwhQp7sFSVuLVKEWDV+CKWPUMhWMt/cXtzI58B5stWsVdHthKWQbKVhG+g3oOjzTu3guvg/+X7Fv9+loNMZRwTNpcPiAkn161j3fr12DTiQUWAyaVKEWAazAOfxcAj//nUzDfm5LhjXwW+WeaKva9slUowJFvBspVJUerAp4B5U0OMMn94XnNA0mfwehd+AnDTva4HyFaOMeHmI7dQGxvLTKoUAcaRKkWACfmm7yK5kItg+feEQ8DHSGX01AJkywy5bFXgNwldhnRl67vAvwMs/sWPSjJEU7J24o2T9RGgkddNNLSAJYwJJyYn2bRlS2oVtiLAiGKFIsAMqPsOcmioBGvpg7c3X/4v4OulEgzJVgbFL6Fsxb8g/wbYZdR5UHRL1j7gt4D3k2A6sFDiFFm2YmyzpWVry1FHMjE5kbjCVgQYQaoUAWbN130HySUezE2w1i5g9mH4U0xWk6nmJ1tItqolW/Ge1/o8XgzE4ofUeiUCJesQ3tyFfwQspnO9RJCtnu8FnP9hYkJgat06jjh6S2KpUgQYR6oUAWbEHPCnwD5r8zsYuQnW8gdva778NPCJ7OvdbDcQ7uF4yVaFZWsf8C7ggGs0OIPoK1lzwO8D/w2y+uORBDFhWK8zOLUaxxx3NOMT45EqbEWAEcUKRYA580nfPXj0v5w2fILlSdbt+H/lvRN4ML96V7Il2YokWw3gz6zfHX/lr35EtycxSLIWwbwHrzXrcCrnZbcBRZSt6AK35agj2HTEpu6KWRFgcqlSBFgU3/GdYzGvaLAQwQJwDGB5AvhdYFf+9a5kS7I1ULY+CfyZAXfprxUNirCSZVfAvh94O14LaEqnZg4xoYWNGzdwzHFHr417pQgwA6lSBJgzu4DfAR4vYuO5C9biB27369LGnQP/2hs52SoSyZbPvWB+B2MOS65EdMkyDSwfwethuDP9yzSDmNDCuvVTHH/i0YyN1RQBpiFWKAIsAYeBd7gOd0F+D7YXKljgR4V2DIv5OzDvAHN44E1gJGRLU/UULFtfAP4/wHOOgxDxJMsYF1P7BN5YWU/HPvdzigmn1k1w4onHMDk5oQgwiVQpAiwT08D/DXzUcbFFyBVF1+QTv34PGMaw/BLw34Hj2s+mkCdd5ldPzj+AzX0nsz8WttS/iQX+A/gvwBMAS3ruSiThd38ADQOOvQn4M+CCWKdla48nazvea3nd9V6Pzzo+X79ukhOOP4qpqYkQV5ct0SVbju3YPDYsoYrKHuAdGPMRLPVH/vMrC22qKJSJX78H6z2atQN4N7A19hkm2Rox2UplRYt4g0X+P8CupckZ+PM36hYlkvM7P2yeo1uBPwS2Eyk16CFYgbIVRsDWPjdYNm9az3HHbmF8fKzP1SSp6i1WkqoS8kPg//L/YHaLarkqjWABTPyne7wJJwxnA/8VeD2wLtGZJ9mSbA3mSV/qPwYsqNVKpM7vPQ6NJTAcg9dC+n8Ax8SSrKBWqtb3+wlYy3+PjTkcfeQmjtyyAcdxekSA1ZGdfKUqww1LqpL+ofyvwO9b7CMOhocLlqvSCNaqaP36PQDrgTf4N6OLgVriM1KyJdlq5xDwz8Af02j8EMdBD7SLTPmdH+Dfy27AG/391t5/RPYQrCBxihATOo5h44ZJjj5yY1skWCmxUgQo2nHxpjP7E/+ePvdICcSqlIIFMPaf7mGyYVhx7InAG4FfxHt+YSKVs1SyNcqytRe4C2/6my8Dy2q1Ernxfz4EjguwCS8u/BXgev+/B9T0IVqput7z/r/mOKxfN8GWI9axYf3k2jAMkqoBYiWpKjErwPfx0odPYGs7MQ3KJFelFKwm4//HvazUa0yM148DbgJeC1wLnCzZkmxFWPIw8AjYu4D/7V+UEitRoGj9ABwLmA3AVf697WbgdGBD4GkcMSZ0HMPEmMOGdRNs3DDJuqlxHMf4X1ME2FuqJFYlZhlv6JOv+vfy+yzOHoOlyAfZKylYbbL16/dgvN6GLwMuAi4FzgNeDhzl35RqBD5AWgbZssX8kKWULZvV4g3/ApwGduP1Bvwu8C3gUUztMNa1S3+1XbcpUR5+54dgcTD2GOB8/952IXAqcCywCew41q7d22zrw+o4xuA4Bmes5jA+7jA1Mca6yTEmJ8ao1RxvHNHA+dds2petKfLWEHc7dnSEyhpjGnixWplxgTowDxwAngce8u/l3wVeAFbK1lpVWcFqZew3P0f9z25k4j/dO+aL1Ub//yfo20PHFnwxSLIylCzrC9YC3lxwM9Z76NEu/9UOVeKiQsL1A/z72DpPrtgATGFtrTMaNMCYY2rj487Y1ETNWT/VlCrvTmBdXx16Tm5r+1kHbULnbS44OrMto2tWKHIcucYk4zA2PrHsOKbsgtUAlnzBmgHmjjswXT+4aRPf/63TdI8QQgghhBBCCCGEEEIIIYQQQgghhBBCCCGEEEIIIYQQQgghhBBCCCGEEEIIIYQQQgghhBBCCCGEEEIIIYQQQgghhBBCCCGEEEIIIYQQQgghhBBCCCGEEEIIIYQQQgghhBBCCCGEEEIIIYQQQgghhBBCCCGEEEIIIYQQQgghhBBCCCGEEEIIIYQQQgghhBBCCCGEEEIIIYQQQgghhBBCCCGEEEIIIYQQQgghhBBCCCGEEEIIIYQQQgghhBBCCCGEEEIIIYQQQgghhBBCCCGEEEIIIYQQQgghhBBCCCGEEEIIIYQQQgghhBBCjBT/LxDWdWMQJexQAAAAJXRFWHRkYXRlOmNyZWF0ZQAyMDIxLTExLTAxVDIyOjA2OjM0KzAwOjAw8bUK7AAAACV0RVh0ZGF0ZTptb2RpZnkAMjAyMS0xMS0wMVQyMjowNjozNCswMDowMIDoslAAAAAASUVORK5CYII=;fontColor=#000000;" vertex="1" parent="1">
                    <mxGeometry x="-443.47999999999996" y="656" width="51.82" height="51.82" as="geometry"/>
                </mxCell>
                <mxCell id="22" value="Image registry" style="image;aspect=fixed;html=1;points=[];align=center;fontSize=12;image=img/lib/azure2/containers/Container_Registries.svg;" vertex="1" parent="1">
                    <mxGeometry x="-298.2" y="534" width="60.2" height="54" as="geometry"/>
                </mxCell>
                <mxCell id="29" value="Build &amp;amp; push&lt;div&gt;Code location&lt;/div&gt;&lt;div&gt;images&lt;/div&gt;" style="edgeStyle=orthogonalEdgeStyle;html=1;dashed=1;" edge="1" parent="1" source="23" target="22">
                    <mxGeometry x="0.1303" y="-19" relative="1" as="geometry">
                        <mxPoint y="-1" as="offset"/>
                    </mxGeometry>
                </mxCell>
                <mxCell id="23" value="code location moto" style="shape=image;verticalLabelPosition=bottom;labelBackgroundColor=none;verticalAlign=top;aspect=fixed;imageAspect=0;image=data:image/svg+xml,PHN2ZyB4bWxuczp4bGluaz0iaHR0cDovL3d3dy53My5vcmcvMTk5OS94bGluayIgeG1sbnM9Imh0dHA6Ly93d3cudzMub3JnLzIwMDAvc3ZnIiB4bWw6c3BhY2U9InByZXNlcnZlIiBzdHlsZT0iZW5hYmxlLWJhY2tncm91bmQ6bmV3IDAgMCAxMDAgOTI7IiB2aWV3Qm94PSIwIDAgMTAwIDkyIiB5PSIwcHgiIHg9IjBweCIgaWQ9IkxheWVyXzEiIHZlcnNpb249IjEuMSI+CjxzdHlsZSB0eXBlPSJ0ZXh0L2NzcyI+Cgkuc3Qwe2ZpbGw6I0UyNDMyOTt9Cgkuc3Qxe2ZpbGw6I0ZDNkQyNjt9Cgkuc3Qye2ZpbGw6I0ZDQTMyNjt9Cjwvc3R5bGU+CjxkZXNjPkNyZWF0ZWQgd2l0aCBTa2V0Y2guPC9kZXNjPgo8Zz4KCTxwYXRoIGQ9Ik05NS45LDM2LjVsLTAuMS0wLjNMODIuOCwyLjRjLTAuMy0wLjctMC43LTEuMi0xLjMtMS42Yy0wLjYtMC40LTEuMy0wLjYtMi0wLjVjLTAuNywwLTEuNCwwLjMtMiwwLjcmIzEwOyYjOTsmIzk7Yy0wLjYsMC40LTEsMS4xLTEuMSwxLjdsLTguNywyNi43SDMyLjNMMjMuNiwyLjdDMjMuNCwyLjEsMjMsMS40LDIyLjUsMWMtMC42LTAuNC0xLjItMC43LTItMC43Yy0wLjcsMC0xLjQsMC4xLTIsMC41JiMxMDsmIzk7JiM5O2MtMC42LDAuNC0xLjEsMC45LTEuMywxLjZMNC4yLDM2LjFsLTAuMSwwLjNjLTMuOCwxMC0wLjYsMjEuMyw4LDI3LjdjMCwwLDAsMCwwLDBsMC4xLDAuMWwxOS43LDE0LjdsOS43LDcuNGw1LjksNC41JiMxMDsmIzk7JiM5O2MxLjQsMS4xLDMuNCwxLjEsNC44LDBsNS45LTQuNWw5LjctNy40bDE5LjgtMTQuOGMwLDAsMCwwLDAuMSwwQzk2LjUsNTcuOCw5OS43LDQ2LjUsOTUuOSwzNi41eiIgY2xhc3M9InN0MCIvPgoJPHBhdGggZD0iTTk1LjksMzYuNWwtMC4xLTAuM2MtNi40LDEuMy0xMi4zLDQtMTcuNCw3LjhDNzguMyw0NCw2Myw1NS42LDUwLDY1LjRjOS43LDcuMywxOC4xLDEzLjcsMTguMSwxMy43bDE5LjgtMTQuOCYjMTA7JiM5OyYjOTtjMCwwLDAsMCwwLjEsMEM5Ni41LDU3LjgsOTkuNyw0Ni41LDk1LjksMzYuNXoiIGNsYXNzPSJzdDEiLz4KCTxwYXRoIGQ9Ik0zMS45LDc5LjFsOS43LDcuNGw1LjksNC41YzEuNCwxLjEsMy40LDEuMSw0LjgsMGw1LjktNC41bDkuNy03LjRjMCwwLTguNC02LjQtMTguMS0xMy43JiMxMDsmIzk7JiM5O0M0MC4zLDcyLjcsMzEuOSw3OS4xLDMxLjksNzkuMXoiIGNsYXNzPSJzdDIiLz4KCTxwYXRoIGQ9Ik0yMS42LDQzLjljLTUuMS0zLjgtMTEtNi41LTE3LjQtNy44bC0wLjEsMC4zYy0zLjgsMTAtMC42LDIxLjMsOCwyNy43YzAsMCwwLDAsMCwwbDAuMSwwLjFsMTkuNywxNC43JiMxMDsmIzk7JiM5O2MwLDAsOC40LTYuNCwxOC4xLTEzLjdDMzcsNTUuNiwyMS43LDQ0LDIxLjYsNDMuOXoiIGNsYXNzPSJzdDEiLz4KPC9nPgo8L3N2Zz4=;fontColor=#000000;" vertex="1" parent="1">
                    <mxGeometry x="-448" y="740" width="60.87" height="56" as="geometry"/>
                </mxCell>
                <mxCell id="40" value="Maintain Infra" style="edgeStyle=none;html=1;fillColor=#d5e8d4;strokeColor=#82b366;" edge="1" parent="1" source="39" target="20">
                    <mxGeometry x="-0.2816" y="-1" relative="1" as="geometry">
                        <mxPoint x="-1" as="offset"/>
                    </mxGeometry>
                </mxCell>
                <mxCell id="39" value="Cloud Team" style="image;aspect=fixed;html=1;points=[];align=center;fontSize=12;image=img/lib/azure2/identity/User_Settings.svg;imageBackground=default;" vertex="1" parent="1">
                    <mxGeometry x="-668" y="560" width="52.57" height="44" as="geometry"/>
                </mxCell>
                <mxCell id="45" value="Change request" style="edgeStyle=none;html=1;rounded=1;strokeColor=#82b366;align=center;verticalAlign=middle;fontFamily=Helvetica;fontSize=11;fontColor=default;labelBackgroundColor=default;endArrow=classic;fillColor=#d5e8d4;" edge="1" parent="1" source="43" target="20">
                    <mxGeometry relative="1" as="geometry"/>
                </mxCell>
                <mxCell id="48" value="Maintain" style="edgeStyle=none;html=1;rounded=1;strokeColor=#82b366;align=center;verticalAlign=middle;fontFamily=Helvetica;fontSize=11;fontColor=default;labelBackgroundColor=default;endArrow=classic;fillColor=#d5e8d4;" edge="1" parent="1" source="43" target="23">
                    <mxGeometry relative="1" as="geometry"/>
                </mxCell>
                <mxCell id="43" value="Moto Team" style="image;aspect=fixed;html=1;points=[];align=center;fontSize=12;image=img/lib/azure2/azure_stack/User_Subscriptions.svg;" vertex="1" parent="1">
                    <mxGeometry x="-657" y="660.82" width="48.42" height="47" as="geometry"/>
                </mxCell>
                <mxCell id="49" value="Maintain" style="edgeStyle=none;html=1;rounded=1;strokeColor=#82b366;align=center;verticalAlign=middle;fontFamily=Helvetica;fontSize=11;fontColor=default;labelBackgroundColor=default;endArrow=classic;fillColor=#d5e8d4;" edge="1" parent="1" source="47" target="19">
                    <mxGeometry relative="1" as="geometry">
                        <mxPoint x="-238" y="909.3121457489879" as="sourcePoint"/>
                    </mxGeometry>
                </mxCell>
                <mxCell id="50" value="Change request" style="edgeStyle=none;html=1;rounded=1;strokeColor=#82b366;align=center;verticalAlign=middle;fontFamily=Helvetica;fontSize=11;fontColor=default;labelBackgroundColor=default;endArrow=classic;fillColor=#d5e8d4;" edge="1" parent="1" source="47" target="20">
                    <mxGeometry relative="1" as="geometry"/>
                </mxCell>
                <mxCell id="47" value="AP Team" style="image;aspect=fixed;html=1;points=[];align=center;fontSize=12;image=img/lib/azure2/azure_stack/User_Subscriptions.svg;" vertex="1" parent="1">
                    <mxGeometry x="-654.85" y="832.5" width="48.42" height="47" as="geometry"/>
                </mxCell>
                <mxCell id="54" value="Maintain Dagster" style="edgeStyle=none;html=1;rounded=1;strokeColor=#82b366;align=center;verticalAlign=middle;fontFamily=Helvetica;fontSize=11;fontColor=default;labelBackgroundColor=default;endArrow=classic;fillColor=#d5e8d4;" edge="1" parent="1" source="51" target="20">
                    <mxGeometry x="-0.4243" y="-1" relative="1" as="geometry">
                        <mxPoint as="offset"/>
                    </mxGeometry>
                </mxCell>
                <mxCell id="51" value="Data Team" style="image;aspect=fixed;html=1;points=[];align=center;fontSize=12;image=img/lib/azure2/identity/User_Settings.svg;imageBackground=default;" vertex="1" parent="1">
                    <mxGeometry x="-572" y="499" width="52.57" height="44" as="geometry"/>
                </mxCell>
                <mxCell id="57" value="Access" style="edgeStyle=none;html=1;rounded=1;strokeColor=#82b366;align=center;verticalAlign=middle;fontFamily=Helvetica;fontSize=11;fontColor=default;labelBackgroundColor=default;endArrow=classic;fillColor=#d5e8d4;" edge="1" parent="1" source="56" target="2">
                    <mxGeometry relative="1" as="geometry"/>
                </mxCell>
                <mxCell id="58" value="Access" style="edgeStyle=none;html=1;rounded=1;strokeColor=#82b366;align=center;verticalAlign=middle;fontFamily=Helvetica;fontSize=11;fontColor=default;labelBackgroundColor=default;endArrow=classic;fillColor=#d5e8d4;" edge="1" parent="1" source="56" target="8">
                    <mxGeometry relative="1" as="geometry"/>
                </mxCell>
                <mxCell id="56" value="Data Team" style="image;aspect=fixed;html=1;points=[];align=center;fontSize=12;image=img/lib/azure2/identity/User_Settings.svg;imageBackground=default;" vertex="1" parent="1">
                    <mxGeometry x="-8.999999999999998" y="788.5" width="52.57" height="44" as="geometry"/>
                </mxCell>
                <mxCell id="60" value="Access" style="edgeStyle=none;html=1;rounded=1;strokeColor=#82b366;align=center;verticalAlign=middle;fontFamily=Helvetica;fontSize=11;fontColor=default;labelBackgroundColor=default;endArrow=classic;fillColor=#d5e8d4;" edge="1" parent="1" source="59" target="2">
                    <mxGeometry relative="1" as="geometry"/>
                </mxCell>
                <mxCell id="59" value="AP Team" style="image;aspect=fixed;html=1;points=[];align=center;fontSize=12;image=img/lib/azure2/azure_stack/User_Subscriptions.svg;" vertex="1" parent="1">
                    <mxGeometry x="-105" y="785.5" width="48.42" height="47" as="geometry"/>
                </mxCell>
                <mxCell id="62" style="edgeStyle=none;html=1;rounded=1;strokeColor=#82b366;align=center;verticalAlign=middle;fontFamily=Helvetica;fontSize=11;fontColor=default;labelBackgroundColor=default;endArrow=classic;fillColor=#d5e8d4;" edge="1" parent="1" source="61" target="8">
                    <mxGeometry relative="1" as="geometry"/>
                </mxCell>
                <mxCell id="63" value="Access" style="edgeLabel;html=1;align=center;verticalAlign=middle;resizable=0;points=[];" vertex="1" connectable="0" parent="62">
                    <mxGeometry x="-0.299" y="2" relative="1" as="geometry">
                        <mxPoint as="offset"/>
                    </mxGeometry>
                </mxCell>
                <mxCell id="61" value="Moto Team" style="image;aspect=fixed;html=1;points=[];align=center;fontSize=12;image=img/lib/azure2/azure_stack/User_Subscriptions.svg;" vertex="1" parent="1">
                    <mxGeometry x="90" y="781" width="48.42" height="47" as="geometry"/>
                </mxCell>
            </root>
        </mxGraphModel>
    </diagram>
</mxfile>